<svg id="svg" version="1.1" xmlns="http://www.w3.org/2000/svg" xmlns:xlink="http://www.w3.org/1999/xlink" width="400" height="170.65637065637065" viewBox="0, 0, 400,170.65637065637065"><g id="svgg"><path id="path0" d="M329.362 20.493 C 328.633 20.785,328.638 20.590,328.638 48.418 L 328.638 75.304 329.058 75.723 C 329.518 76.183,331.539 76.337,332.235 75.965 C 332.559 75.791,332.565 75.301,332.565 48.219 L 332.565 20.649 332.127 20.482 C 331.586 20.277,329.884 20.283,329.362 20.493 M372.813 20.671 C 372.533 20.834,372.514 21.520,372.514 31.229 C 372.514 36.940,372.465 41.856,372.406 42.153 C 372.183 43.266,371.270 43.183,369.953 41.930 C 361.979 34.345,349.234 37.697,346.330 48.143 C 345.680 50.480,345.544 51.074,345.256 52.838 C 344.789 55.698,344.759 59.398,345.183 61.801 C 345.373 62.881,345.602 64.187,345.692 64.703 C 346.990 72.187,352.184 76.825,359.268 76.825 C 360.732 76.825,361.462 76.742,362.271 76.483 C 362.858 76.295,363.450 76.142,363.584 76.142 C 364.422 76.142,367.951 73.883,370.248 71.878 C 372.313 70.074,372.676 70.328,372.685 73.581 C 372.688 74.661,372.763 75.659,372.852 75.800 C 373.066 76.140,375.799 76.168,376.133 75.834 C 376.424 75.543,376.564 22.312,376.276 21.317 C 376.157 20.904,375.969 20.662,375.714 20.594 C 375.099 20.429,373.139 20.481,372.813 20.671 M67.942 24.535 C 67.522 24.994,66.992 25.596,66.764 25.873 C 66.220 26.534,63.153 29.913,62.899 30.132 C 62.790 30.226,62.394 30.726,62.020 31.244 C 61.645 31.761,60.961 32.606,60.499 33.122 C 59.409 34.337,58.006 36.031,57.789 36.395 C 57.578 36.748,55.941 38.889,54.462 40.747 C 53.850 41.514,53.174 42.398,52.959 42.710 C 52.332 43.621,50.268 46.447,49.561 47.364 C 49.204 47.827,48.873 48.291,48.826 48.396 C 48.779 48.501,48.280 49.225,47.717 50.005 C 46.707 51.403,46.497 51.706,45.856 52.685 C 45.119 53.811,44.484 54.721,44.380 54.802 C 44.319 54.848,44.162 55.097,44.030 55.353 C 43.898 55.609,43.406 56.443,42.936 57.205 C 42.467 57.968,41.967 58.795,41.826 59.044 C 41.685 59.293,41.318 59.867,41.012 60.321 C 40.705 60.774,40.340 61.389,40.201 61.687 C 40.062 61.984,39.723 62.574,39.448 62.996 C 39.173 63.419,38.666 64.318,38.322 64.995 C 37.977 65.672,37.595 66.309,37.473 66.411 C 37.351 66.512,37.199 66.803,37.135 67.058 C 37.072 67.312,36.914 67.638,36.784 67.783 C 36.654 67.927,36.428 68.311,36.282 68.636 C 36.136 68.961,35.950 69.343,35.867 69.484 C 35.785 69.624,35.628 69.932,35.518 70.166 C 35.409 70.401,35.113 70.960,34.860 71.409 C 34.607 71.857,33.790 73.432,33.043 74.909 C 32.297 76.385,31.304 78.284,30.836 79.129 C 30.368 79.974,29.359 81.933,28.592 83.483 C 26.907 86.890,26.512 87.726,24.966 91.165 C 24.037 93.229,22.700 96.318,22.304 97.311 C 22.061 97.921,21.435 99.458,20.912 100.726 C 20.390 101.993,19.727 103.645,19.440 104.396 C 19.152 105.147,18.779 106.108,18.610 106.530 C 18.442 106.953,18.095 107.875,17.840 108.579 C 17.586 109.283,17.239 110.205,17.069 110.627 C 16.900 111.050,16.610 111.857,16.426 112.420 C 16.241 112.983,15.515 115.134,14.813 117.200 C 13.648 120.624,13.183 122.075,12.291 125.053 C 12.122 125.617,11.783 126.731,11.537 127.529 C 11.292 128.327,11.089 129.134,11.086 129.321 C 11.084 129.509,10.967 129.970,10.827 130.346 C 10.688 130.721,10.469 131.566,10.341 132.224 C 10.213 132.881,9.990 133.918,9.845 134.528 C 8.497 140.204,8.693 142.707,10.540 143.416 C 11.081 143.624,12.100 144.018,12.804 144.292 C 16.100 145.575,23.984 148.165,27.998 149.284 C 28.890 149.533,30.120 149.876,30.730 150.048 C 35.825 151.476,44.222 153.152,48.399 153.574 C 49.620 153.697,51.464 153.887,52.497 153.995 C 61.876 154.975,70.607 152.848,73.609 148.852 C 75.050 146.934,74.975 146.777,68.971 139.138 C 59.667 127.301,54.218 118.323,50.629 108.920 C 50.181 107.746,49.669 106.411,49.491 105.952 C 49.313 105.494,49.169 105.033,49.171 104.928 C 49.172 104.823,48.983 104.123,48.750 103.372 C 47.710 100.018,46.927 96.709,46.608 94.324 C 46.508 93.572,46.356 92.574,46.270 92.104 C 45.751 89.256,45.736 79.406,46.247 76.483 C 46.337 75.967,46.417 74.839,46.424 73.976 C 46.431 73.114,46.526 72.192,46.635 71.927 C 46.745 71.663,46.885 70.871,46.946 70.166 C 47.007 69.462,47.185 68.617,47.341 68.289 C 47.497 67.960,47.696 67.180,47.783 66.556 C 47.871 65.932,48.055 65.240,48.194 65.020 C 48.332 64.799,48.496 64.208,48.559 63.706 C 48.621 63.205,48.821 62.515,49.005 62.172 C 49.188 61.830,49.339 61.357,49.339 61.121 C 49.339 60.885,49.480 60.461,49.652 60.179 C 49.824 59.898,50.017 59.338,50.081 58.935 C 50.145 58.533,50.350 57.919,50.537 57.572 C 50.723 57.225,50.877 56.786,50.880 56.597 C 50.883 56.407,51.075 55.869,51.306 55.399 C 51.536 54.930,51.726 54.442,51.727 54.316 C 51.728 54.190,51.882 53.892,52.070 53.653 C 52.258 53.414,52.412 53.057,52.413 52.858 C 52.413 52.659,52.566 52.266,52.753 51.985 C 52.939 51.703,53.093 51.358,53.093 51.219 C 53.094 51.079,53.277 50.580,53.500 50.109 C 53.724 49.638,53.992 49.061,54.097 48.826 C 54.201 48.592,54.359 48.284,54.447 48.143 C 54.535 48.003,54.849 47.350,55.143 46.692 C 55.437 46.035,55.751 45.382,55.840 45.241 C 55.987 45.007,56.252 44.499,56.952 43.107 C 57.093 42.825,57.281 42.480,57.369 42.339 C 57.456 42.198,57.644 41.814,57.785 41.485 C 57.926 41.157,58.115 40.773,58.205 40.632 C 58.500 40.168,60.648 36.462,60.975 35.851 C 61.151 35.523,61.677 34.678,62.143 33.974 C 62.610 33.269,63.148 32.424,63.340 32.096 C 63.532 31.767,63.821 31.298,63.983 31.054 C 66.036 27.952,66.791 26.851,68.043 25.132 C 69.021 23.789,68.959 23.422,67.942 24.535 M251.787 23.814 C 251.731 23.870,250.850 24.061,249.829 24.240 C 248.808 24.418,247.687 24.683,247.338 24.830 C 246.989 24.976,246.589 25.096,246.449 25.096 C 245.918 25.096,242.453 26.870,240.627 28.076 C 237.378 30.223,232.826 36.429,232.107 39.693 C 232.045 39.974,231.852 40.589,231.679 41.058 C 231.339 41.979,230.910 43.924,230.625 45.839 C 230.354 47.657,230.525 55.895,230.852 56.765 C 230.993 57.140,231.201 57.979,231.313 58.627 C 231.426 59.276,231.619 60.006,231.743 60.249 C 231.868 60.492,232.026 60.957,232.096 61.281 C 232.397 62.677,234.225 66.104,235.606 67.862 C 238.891 72.043,242.852 74.517,248.570 75.961 C 252.712 77.006,261.205 76.480,264.959 74.946 C 265.382 74.774,266.227 74.442,266.838 74.210 C 268.944 73.407,270.305 72.570,270.580 71.906 C 270.967 70.972,270.747 49.532,270.347 49.239 C 270.071 49.038,268.563 48.997,261.346 48.997 L 252.675 48.997 252.394 49.426 C 252.071 49.919,252.126 51.597,252.477 51.948 C 252.631 52.102,254.413 52.168,259.398 52.204 C 265.941 52.251,266.120 52.261,266.432 52.606 C 266.734 52.939,266.755 53.415,266.800 61.045 C 266.854 70.399,266.902 70.055,265.440 70.767 C 263.893 71.520,262.173 72.180,261.460 72.294 C 261.084 72.354,260.393 72.532,259.923 72.691 C 258.470 73.183,252.190 73.111,250.277 72.581 C 242.739 70.492,238.030 65.831,235.935 58.387 C 235.764 57.776,235.538 57.008,235.434 56.679 C 234.721 54.424,234.723 45.635,235.438 43.755 C 235.538 43.493,235.724 42.856,235.852 42.339 C 237.593 35.306,242.574 29.964,249.338 27.875 C 251.718 27.140,258.815 27.150,261.033 27.891 C 263.930 28.859,266.710 30.121,268.358 31.216 C 270.320 32.520,271.012 32.323,270.992 30.465 C 270.968 28.220,268.799 26.643,263.252 24.840 C 260.808 24.045,252.316 23.285,251.787 23.814 M296.091 38.150 C 291.151 38.946,285.975 43.103,284.595 47.384 C 284.475 47.755,284.315 48.137,284.240 48.233 C 284.117 48.390,283.633 49.976,283.227 51.555 C 282.555 54.166,282.671 62.063,283.417 64.533 C 284.136 66.914,284.303 67.387,284.803 68.459 C 286.452 71.991,290.621 75.524,293.780 76.068 C 294.126 76.128,295.012 76.326,295.749 76.508 C 297.658 76.982,301.712 76.893,304.140 76.324 C 310.309 74.880,315.022 69.933,316.269 63.594 C 316.398 62.936,316.592 62.130,316.699 61.801 C 316.972 60.968,317.107 54.656,316.885 53.180 C 315.877 46.497,312.804 41.254,309.006 39.734 C 308.865 39.678,308.096 39.355,307.298 39.016 C 304.934 38.014,299.531 37.596,296.091 38.150 M304.738 41.825 C 305.254 42.048,305.880 42.370,306.130 42.541 C 306.379 42.711,306.635 42.851,306.699 42.851 C 307.741 42.851,311.566 47.824,311.566 49.179 C 311.566 49.271,311.725 49.787,311.920 50.324 C 312.865 52.937,312.918 61.422,312.004 63.798 C 311.867 64.155,311.666 64.793,311.559 65.216 C 310.584 69.038,306.834 72.402,302.700 73.161 C 295.874 74.416,290.517 71.628,288.272 65.653 C 286.948 62.129,286.475 56.004,287.281 52.838 C 287.473 52.087,287.677 51.143,287.736 50.741 C 287.794 50.338,287.994 49.725,288.181 49.377 C 288.367 49.030,288.519 48.677,288.519 48.594 C 288.519 46.799,292.383 42.939,295.290 41.830 L 296.628 41.319 300.213 41.370 C 303.547 41.417,303.865 41.449,304.738 41.825 M364.648 42.244 C 367.233 43.599,371.623 47.536,372.266 49.076 C 372.619 49.921,372.634 64.428,372.282 65.269 C 371.598 66.907,366.604 71.364,364.242 72.446 C 356.965 75.777,350.570 71.170,349.354 61.722 C 348.117 52.100,350.606 44.668,355.960 42.003 C 357.243 41.364,357.486 41.328,360.307 41.365 L 363.039 41.400 364.648 42.244 M88.946 93.329 C 88.247 93.587,88.263 93.073,88.263 115.434 C 88.263 136.488,88.269 136.910,88.593 137.083 C 89.023 137.313,110.443 137.325,111.894 137.096 C 112.465 137.006,114.008 136.807,115.322 136.653 C 119.807 136.129,123.319 134.947,126.027 133.048 C 129.115 130.883,130.700 128.271,131.389 124.211 C 132.004 120.586,132.004 109.887,131.390 106.274 C 130.086 98.606,124.631 94.661,113.871 93.601 C 111.072 93.326,89.590 93.091,88.946 93.329 M147.370 93.480 C 147.028 93.720,146.991 93.889,146.991 95.238 C 146.991 97.199,146.904 97.140,149.808 97.140 C 152.699 97.140,152.625 97.189,152.625 95.314 C 152.625 93.274,152.545 93.214,149.846 93.214 C 148.225 93.214,147.664 93.274,147.370 93.480 M112.079 97.044 C 120.054 97.773,124.354 100.655,125.629 106.124 C 126.213 108.629,126.185 122.285,125.591 124.565 C 124.331 129.401,120.346 132.416,114.213 133.174 C 113.508 133.261,112.394 133.407,111.737 133.498 C 109.069 133.868,94.671 133.717,94.307 133.315 C 93.992 132.967,93.982 132.422,93.982 115.237 C 93.982 98.052,93.992 97.507,94.307 97.158 C 94.718 96.705,107.475 96.623,112.079 97.044 M176.611 106.021 C 171.303 107.066,167.785 110.348,166.898 115.082 C 166.463 117.402,166.503 126.485,166.957 128.430 C 167.933 132.616,170.798 135.442,175.501 136.857 L 177.123 137.345 182.416 137.339 C 188.995 137.332,190.954 136.911,193.819 134.886 C 195.593 133.632,195.988 133.956,195.988 136.663 C 195.988 139.761,195.299 141.531,193.393 143.329 C 188.763 147.697,178.920 147.968,172.907 143.894 C 171.505 142.944,171.082 143.037,168.545 144.854 C 167.933 145.292,168.071 145.720,169.057 146.439 C 170.807 147.715,171.787 148.164,175.471 149.373 L 177.574 150.064 181.019 150.061 C 191.809 150.050,197.912 147.571,200.497 142.149 C 201.784 139.448,201.793 139.315,201.793 121.729 L 201.793 106.549 201.413 106.284 C 200.971 105.974,197.178 105.899,196.426 106.184 C 196.020 106.339,195.988 106.429,195.988 107.427 C 195.988 109.252,195.308 109.715,194.016 108.768 C 190.405 106.122,182.466 104.869,176.611 106.021 M224.499 106.020 C 219.049 107.067,215.552 110.384,214.694 115.322 C 214.291 117.642,214.324 126.210,214.744 128.212 C 215.662 132.585,218.280 135.201,223.389 136.850 L 224.925 137.345 230.218 137.344 L 235.510 137.342 237.447 136.784 C 239.579 136.169,240.619 135.697,241.756 134.830 C 242.749 134.073,242.998 133.993,243.429 134.295 C 243.851 134.591,243.955 137.648,243.601 139.343 C 242.046 146.774,228.896 149.355,220.704 143.839 C 220.211 143.507,219.595 143.235,219.335 143.235 C 218.843 143.235,215.962 144.970,215.962 145.266 C 215.962 146.257,218.730 147.857,222.871 149.260 L 224.925 149.956 228.596 150.018 C 239.366 150.199,245.418 147.801,248.307 142.208 C 249.586 139.730,249.588 139.702,249.591 121.763 L 249.595 106.351 249.157 106.184 C 248.916 106.093,247.780 106.018,246.634 106.018 C 243.975 106.018,243.790 106.119,243.790 107.575 C 243.790 109.426,243.168 109.738,241.655 108.645 C 238.129 106.099,230.315 104.903,224.499 106.020 M275.373 106.014 C 268.684 107.103,263.797 111.006,262.757 116.090 C 260.583 126.717,263.328 132.990,271.543 136.165 C 275.100 137.540,274.558 137.470,280.973 137.384 L 286.726 137.307 288.690 136.781 C 291.948 135.908,295.716 134.323,296.443 133.520 C 296.852 133.068,296.709 132.888,295.060 131.775 C 293.471 130.703,293.409 130.705,291.076 131.855 C 285.381 134.662,277.550 134.800,272.579 132.182 C 269.815 130.726,267.884 127.988,267.734 125.309 C 267.610 123.118,265.801 123.353,283.156 123.301 C 294.447 123.266,298.197 123.205,298.382 123.052 C 299.045 122.501,298.355 116.282,297.373 113.962 C 295.641 109.870,291.307 106.756,286.283 105.994 C 283.947 105.640,277.599 105.651,275.373 106.014 M327.009 105.937 C 324.333 106.355,321.290 107.533,319.113 108.994 C 317.262 110.236,316.859 110.028,316.859 107.831 C 316.859 106.081,316.759 106.018,314.004 106.018 C 310.860 106.018,311.225 103.954,311.225 121.715 L 311.225 136.728 311.604 136.994 C 311.897 137.199,312.455 137.260,314.042 137.260 C 315.628 137.260,316.187 137.199,316.479 136.994 L 316.859 136.728 316.859 126.782 C 316.859 114.827,316.852 114.879,318.628 112.607 C 321.277 109.217,330.325 107.987,335.723 110.281 C 337.506 111.039,337.388 111.065,339.109 109.539 C 341.015 107.849,340.980 107.587,338.734 106.731 C 336.088 105.723,330.711 105.359,327.009 105.937 M147.290 106.202 C 146.799 106.488,146.830 136.820,147.321 137.083 C 147.751 137.313,151.865 137.313,152.295 137.083 C 152.759 136.835,152.820 106.749,152.357 106.286 C 152.040 105.970,147.809 105.900,147.290 106.202 M188.162 109.241 C 192.252 110.258,194.944 112.505,195.745 115.572 C 196.079 116.852,196.088 125.973,195.756 127.383 C 193.588 136.594,175.186 136.834,172.619 127.684 C 172.110 125.871,172.080 117.733,172.575 115.834 C 173.574 112.004,176.456 109.827,181.818 108.855 C 182.925 108.654,186.734 108.886,188.162 109.241 M236.108 109.249 C 239.687 110.238,242.049 111.990,243.261 114.554 L 243.705 115.493 243.705 121.554 L 243.705 127.614 243.198 128.638 C 239.725 135.658,225.838 136.513,221.498 129.974 C 219.682 127.237,219.374 117.221,221.009 114.027 C 222.360 111.386,225.591 109.464,229.706 108.856 C 230.994 108.665,234.853 108.902,236.108 109.249 M284.336 109.407 C 289.094 110.121,292.479 113.272,292.996 117.467 C 293.179 118.957,293.173 119.024,292.811 119.386 L 292.436 119.761 280.486 119.807 L 268.536 119.853 268.090 119.407 C 267.230 118.547,267.909 115.674,269.479 113.536 C 271.992 110.112,277.968 108.451,284.336 109.407 M5.335 162.883 C 4.926 163.313,5.066 164.558,5.549 164.778 C 5.870 164.924,18.836 164.915,57.406 164.741 C 102.243 164.539,119.608 164.405,118.182 164.270 C 117.901 164.244,117.798 164.124,117.798 163.828 C 117.798 163.509,117.682 163.400,117.255 163.314 C 115.192 162.902,5.719 162.480,5.335 162.883 " stroke="none" fill="#358f6a" fill-rule="evenodd"></path><path id="path1" d="M0.000 85.361 L 0.000 170.721 200.000 170.721 L 400.000 170.721 400.000 85.361 L 400.000 0.000 200.000 0.000 L 0.000 0.000 0.000 85.361 M76.278 16.253 C 76.646 16.620,76.495 16.966,75.364 18.353 C 73.892 20.158,71.646 23.035,70.631 24.414 C 70.183 25.024,69.447 26.022,68.995 26.633 C 63.251 34.402,56.673 46.255,53.364 54.802 C 53.018 55.694,52.590 56.769,52.413 57.192 C 52.236 57.614,51.885 58.613,51.635 59.411 C 51.385 60.209,51.042 61.246,50.873 61.716 C 50.252 63.440,49.436 66.422,48.910 68.886 C 48.790 69.449,48.571 70.410,48.423 71.020 C 46.406 79.363,46.501 90.899,48.659 99.701 C 49.679 103.863,50.105 105.266,51.225 108.152 C 51.517 108.903,51.797 109.671,51.849 109.859 C 52.654 112.793,57.951 122.589,61.771 128.212 C 63.956 131.428,69.154 138.391,71.265 140.930 C 75.973 146.594,76.118 148.363,72.110 151.286 C 67.948 154.321,58.384 155.710,49.851 154.520 C 49.240 154.435,48.050 154.276,47.204 154.167 C 46.359 154.058,45.053 153.854,44.302 153.714 C 43.551 153.574,42.245 153.350,41.400 153.216 C 40.555 153.081,39.364 152.856,38.754 152.714 C 38.143 152.572,36.837 152.270,35.851 152.043 C 34.866 151.815,33.713 151.540,33.291 151.430 C 32.868 151.320,31.946 151.087,31.242 150.913 C 29.080 150.376,26.764 149.710,22.877 148.507 C 22.266 148.318,21.306 148.024,20.743 147.852 C 19.222 147.390,13.153 145.242,11.097 144.439 C 7.650 143.093,7.450 141.600,9.492 132.480 C 10.032 130.067,10.527 128.110,10.938 126.761 C 11.110 126.197,11.450 125.045,11.694 124.200 C 12.783 120.435,14.139 116.244,15.590 112.164 C 16.007 110.990,16.631 109.223,16.977 108.237 C 17.322 107.251,17.746 106.099,17.918 105.676 C 18.090 105.254,18.431 104.370,18.675 103.713 C 18.919 103.056,19.552 101.443,20.082 100.128 C 20.611 98.813,21.219 97.277,21.432 96.714 C 21.645 96.150,22.086 95.075,22.412 94.324 C 22.738 93.572,23.429 91.957,23.948 90.734 C 27.042 83.441,30.746 75.627,34.121 69.277 C 38.962 60.166,42.650 54.211,48.373 46.265 C 49.218 45.092,50.285 43.606,50.744 42.964 C 52.052 41.135,54.831 37.508,56.850 34.998 C 57.567 34.106,58.341 33.136,58.569 32.842 C 60.990 29.730,66.446 23.710,69.818 20.431 C 73.623 16.732,75.526 15.501,76.278 16.253 M218.639 19.735 C 219.594 20.444,219.544 18.825,219.528 48.143 C 219.520 63.120,219.460 75.565,219.395 75.798 C 218.996 77.232,214.654 77.525,213.928 76.167 C 213.641 75.633,213.675 20.890,213.961 20.316 C 214.490 19.258,217.494 18.885,218.639 19.735 M332.739 19.549 C 333.625 20.007,333.589 18.815,333.589 48.288 L 333.589 76.111 333.086 76.535 C 332.112 77.355,329.267 77.314,328.366 76.468 L 327.956 76.082 327.961 48.242 C 327.965 25.528,328.008 20.347,328.191 20.106 C 328.809 19.291,331.584 18.952,332.739 19.549 M376.407 19.872 C 377.160 20.261,377.123 18.789,377.123 48.375 C 377.123 79.646,377.275 76.663,375.670 76.996 C 372.865 77.578,371.943 76.900,371.857 74.195 C 371.781 71.816,371.752 71.799,370.147 73.212 C 366.310 76.588,363.951 77.507,359.131 77.507 C 352.018 77.507,347.814 74.448,345.409 67.520 C 343.642 62.429,343.712 52.744,345.556 47.492 C 349.350 36.679,361.068 33.321,369.854 40.528 C 370.503 41.061,371.095 41.436,371.169 41.362 C 371.243 41.288,371.326 36.643,371.354 31.040 C 371.411 19.435,371.321 20.112,372.871 19.679 C 373.804 19.418,375.733 19.523,376.407 19.872 M261.545 23.376 C 264.836 24.347,265.835 24.693,267.264 25.354 C 270.857 27.015,272.017 28.260,272.015 30.452 C 272.013 33.545,270.750 33.977,267.691 31.932 C 260.263 26.968,250.007 26.904,243.671 31.782 C 240.174 34.473,237.354 39.203,236.458 43.875 C 236.359 44.392,236.187 45.198,236.076 45.668 C 235.183 49.450,236.187 57.471,238.052 61.460 C 242.499 70.968,254.233 74.867,264.397 70.214 C 265.902 69.525,265.813 70.083,265.813 61.346 L 265.813 53.626 265.434 53.360 C 265.107 53.131,264.189 53.094,258.852 53.094 C 251.227 53.094,251.240 53.099,251.236 50.448 C 251.232 47.856,251.110 47.887,261.259 47.887 C 273.253 47.887,272.012 46.277,271.928 61.729 L 271.874 71.645 271.359 72.477 C 269.185 75.993,256.337 78.618,249.082 77.029 C 237.850 74.569,231.358 67.208,229.703 55.058 C 227.585 39.507,235.388 26.649,248.912 23.402 C 251.696 22.734,259.313 22.718,261.545 23.376 M109.716 23.700 C 115.889 24.594,120.581 28.699,121.542 34.048 C 122.774 40.902,120.366 46.271,114.689 49.334 C 112.721 50.395,112.733 50.336,114.238 51.599 C 116.299 53.329,118.692 57.582,120.696 63.082 C 120.867 63.551,121.247 64.511,121.541 65.216 C 126.230 76.462,126.265 76.995,122.322 76.995 C 119.758 76.995,119.657 76.892,118.053 72.642 C 117.699 71.703,117.081 70.090,116.679 69.057 C 115.561 66.181,115.144 65.101,114.470 63.338 C 111.075 54.457,108.206 52.326,99.645 52.326 C 97.044 52.326,97.311 50.941,97.311 64.406 C 97.311 72.258,97.254 75.930,97.127 76.167 C 96.499 77.340,92.051 77.293,91.764 76.110 C 91.711 75.893,91.689 64.218,91.715 50.167 C 91.769 21.205,91.604 24.151,93.201 23.648 C 94.133 23.355,107.624 23.397,109.716 23.700 M97.502 28.985 C 97.167 29.612,97.240 46.511,97.579 46.851 C 97.891 47.162,101.801 47.212,105.847 46.956 C 112.084 46.562,115.578 43.247,115.578 37.724 C 115.578 33.351,113.472 30.512,109.332 29.303 C 107.099 28.651,97.814 28.401,97.502 28.985 M152.539 37.290 C 157.362 38.460,160.720 41.246,162.673 45.697 C 162.968 46.370,163.210 47.032,163.210 47.169 C 163.210 47.306,163.330 47.754,163.478 48.165 C 163.835 49.156,164.222 52.430,164.229 54.508 C 164.235 56.416,164.031 57.072,163.220 57.754 L 162.671 58.216 149.986 58.216 C 135.265 58.216,136.822 57.955,136.970 60.397 C 137.290 65.673,139.378 69.440,142.979 71.238 C 146.573 73.032,153.139 72.867,158.173 70.854 C 161.676 69.454,162.375 69.539,162.884 71.425 C 163.583 74.007,161.604 75.496,155.442 77.027 C 152.865 77.667,145.749 77.701,143.358 77.085 C 137.212 75.502,133.623 71.855,131.675 65.216 C 130.718 61.952,130.519 54.909,131.285 51.387 C 133.088 43.098,137.491 38.596,145.369 36.985 C 146.680 36.717,150.920 36.898,152.539 37.290 M192.488 37.424 C 197.582 38.868,200.110 41.669,200.929 46.778 C 201.121 47.973,201.187 75.407,201.000 76.106 C 200.841 76.701,200.088 76.995,198.723 76.995 C 196.503 76.995,195.988 76.526,195.988 74.503 C 195.988 73.019,195.817 73.002,194.078 74.314 C 190.573 76.958,189.136 77.422,184.464 77.422 C 176.349 77.422,172.062 73.620,172.051 66.411 C 172.041 59.560,176.326 55.588,185.318 54.113 C 185.787 54.036,188.097 53.967,190.450 53.960 C 195.879 53.945,195.365 54.321,195.269 50.436 C 195.146 45.439,193.980 43.620,190.132 42.420 C 186.460 41.275,182.235 42.160,176.697 45.232 C 174.341 46.539,172.780 44.443,174.075 41.713 C 174.884 40.009,179.684 37.804,184.379 36.981 C 185.864 36.721,190.998 37.001,192.488 37.424 M305.250 37.360 C 313.623 39.420,317.969 46.051,317.968 56.765 C 317.968 67.379,313.646 74.350,305.417 77.009 C 303.467 77.640,295.435 77.641,293.470 77.012 C 286.013 74.623,282.067 68.443,281.739 58.643 C 281.413 48.876,285.151 41.493,291.970 38.434 C 295.629 36.793,301.136 36.348,305.250 37.360 M144.942 42.385 C 140.716 43.670,137.736 47.386,137.000 52.289 C 136.790 53.693,136.098 53.606,147.589 53.606 C 159.502 53.606,158.361 53.837,158.194 51.462 C 157.718 44.688,151.463 40.404,144.942 42.385 M297.823 42.107 C 292.220 43.575,288.855 47.359,288.281 52.838 C 288.222 53.402,288.086 54.607,287.979 55.516 C 287.709 57.806,288.158 62.220,288.886 64.436 C 290.696 69.944,293.675 72.204,299.315 72.347 C 306.373 72.527,309.869 69.399,311.577 61.374 C 311.657 60.999,311.726 59.167,311.730 57.304 C 311.748 49.099,309.164 44.346,303.713 42.555 C 302.451 42.140,298.767 41.860,297.823 42.107 M357.518 42.422 C 352.526 44.167,350.062 49.087,350.078 57.277 C 350.098 67.139,353.413 72.386,359.625 72.386 C 363.531 72.386,367.174 70.181,370.863 65.587 L 371.319 65.019 371.318 57.221 C 371.316 48.257,371.514 49.298,369.410 47.154 C 365.087 42.746,361.114 41.165,357.518 42.422 M187.452 58.907 C 181.443 59.262,178.175 61.784,178.171 66.069 C 178.168 70.345,180.663 72.472,185.552 72.358 L 188.050 72.300 189.501 71.586 C 191.188 70.756,193.336 69.079,194.494 67.688 L 195.305 66.715 195.305 62.898 C 195.305 59.300,195.286 59.071,194.975 58.905 C 194.607 58.708,190.799 58.709,187.452 58.907 M115.920 93.091 C 125.254 94.634,129.904 97.943,131.822 104.409 C 132.451 106.527,132.450 123.941,131.822 126.078 C 130.035 132.150,125.485 135.564,116.969 137.219 L 114.639 137.672 101.517 137.729 C 89.839 137.780,88.350 137.757,87.988 137.519 L 87.580 137.252 87.580 115.245 L 87.580 93.239 88.045 92.873 L 88.510 92.507 100.892 92.581 C 113.205 92.654,113.288 92.657,115.920 93.091 M152.758 92.797 C 153.265 93.152,153.343 96.971,152.854 97.511 C 152.431 97.979,147.225 97.983,146.648 97.515 C 145.949 96.949,145.959 93.563,146.662 92.860 C 147.111 92.411,152.132 92.358,152.758 92.797 M94.878 97.656 C 94.550 97.859,94.405 132.111,94.731 132.625 C 94.852 132.815,96.491 132.842,104.161 132.780 L 113.444 132.705 115.578 132.172 C 121.345 130.730,124.296 128.185,124.963 124.074 C 125.203 122.594,125.192 108.051,124.950 106.489 C 124.245 101.945,120.860 99.305,114.042 97.981 C 111.772 97.541,95.512 97.264,94.878 97.656 M185.110 104.987 C 188.515 105.345,191.926 106.454,194.025 107.886 C 194.913 108.492,195.076 108.379,195.180 107.092 C 195.321 105.326,195.376 105.302,199.022 105.367 C 201.750 105.416,202.012 105.448,202.238 105.758 C 202.694 106.382,202.487 138.863,202.018 140.333 C 199.736 147.490,193.373 150.779,181.733 150.818 L 177.294 150.832 174.904 150.001 C 171.807 148.925,169.692 147.904,168.418 146.869 C 166.752 145.518,166.856 145.033,169.123 143.579 C 171.346 142.153,171.603 142.126,173.136 143.155 C 176.450 145.378,178.196 145.858,182.928 145.846 C 190.944 145.827,195.134 142.929,195.134 137.403 C 195.134 135.134,195.056 134.992,194.134 135.602 C 190.118 138.259,181.863 139.144,175.501 137.598 C 170.943 136.490,167.610 133.385,166.363 129.084 C 165.758 126.999,165.711 116.521,166.296 114.288 C 167.488 109.736,170.814 106.655,175.843 105.441 C 178.400 104.824,181.923 104.651,185.110 104.987 M233.021 104.991 C 236.547 105.396,239.174 106.256,241.797 107.863 C 242.973 108.584,243.100 108.500,243.105 107.012 C 243.109 105.444,243.347 105.335,246.782 105.335 C 249.260 105.335,249.600 105.370,249.960 105.661 L 250.363 105.988 250.363 122.179 L 250.363 138.370 249.974 139.821 C 248.833 144.076,246.554 146.651,241.997 148.833 C 239.323 150.114,235.011 150.801,229.535 150.819 C 224.930 150.833,224.943 150.835,222.043 149.706 C 221.584 149.527,221.136 149.381,221.046 149.381 C 220.222 149.381,215.938 146.904,215.376 146.102 C 214.751 145.209,215.040 144.815,217.405 143.336 C 219.253 142.181,219.532 142.164,220.936 143.126 C 223.636 144.974,225.960 145.748,229.261 145.901 C 237.685 146.290,242.806 143.268,243.072 137.752 C 243.207 134.940,243.138 134.868,241.345 135.953 C 238.723 137.540,235.856 138.143,230.483 138.239 C 221.570 138.397,216.329 135.594,214.286 129.577 C 213.654 127.716,213.500 116.793,214.074 114.502 C 215.284 109.669,218.641 106.580,224.002 105.368 C 226.415 104.822,230.183 104.664,233.021 104.991 M286.983 105.398 C 293.126 106.777,296.758 109.801,298.531 115.016 C 299.134 116.790,299.361 123.176,298.836 123.612 C 298.584 123.821,296.263 123.871,283.499 123.944 L 268.459 124.029 268.407 124.836 C 267.917 132.465,281.886 136.095,291.533 130.847 C 293.448 129.805,293.382 129.796,295.791 131.384 C 297.688 132.635,297.948 133.020,297.384 133.737 C 296.578 134.762,290.257 137.417,287.940 137.704 C 287.460 137.763,286.607 137.917,286.044 138.046 C 285.307 138.214,283.645 138.280,280.122 138.282 L 275.225 138.284 273.123 137.527 C 268.656 135.917,267.341 135.183,265.309 133.163 C 262.136 130.010,261.446 127.730,261.593 120.876 C 261.764 112.890,264.656 108.618,271.532 106.197 C 275.602 104.764,282.556 104.404,286.983 105.398 M336.577 105.326 C 338.742 105.846,340.377 106.514,341.059 107.157 L 341.643 107.708 341.329 108.242 C 341.027 108.756,338.902 110.768,338.033 111.363 C 337.464 111.752,337.025 111.727,336.133 111.254 C 334.164 110.210,333.125 110.030,329.065 110.030 C 322.901 110.030,319.916 111.280,318.191 114.583 L 317.627 115.664 317.582 126.419 C 317.536 137.100,317.534 137.177,317.178 137.473 C 316.535 138.011,311.350 137.913,310.790 137.353 L 310.371 136.934 310.371 121.740 C 310.371 110.968,310.426 106.425,310.561 106.130 C 310.868 105.457,311.405 105.335,314.061 105.335 C 317.350 105.335,317.535 105.432,317.539 107.156 C 317.543 108.868,317.788 109.098,318.791 108.337 C 322.614 105.434,331.068 104.003,336.577 105.326 M152.825 105.618 C 153.273 106.023,153.316 137.057,152.869 137.504 C 152.400 137.972,146.984 137.894,146.548 137.413 C 146.234 137.066,146.221 136.528,146.173 122.091 C 146.121 106.410,146.128 106.198,146.659 105.667 C 147.126 105.200,152.318 105.159,152.825 105.618 M181.382 109.770 C 176.337 110.560,173.582 112.990,173.116 117.062 C 172.649 121.137,172.974 127.130,173.746 128.684 C 177.137 135.510,191.158 135.297,194.665 128.366 L 195.134 127.439 195.134 121.490 L 195.134 115.541 194.593 114.524 C 192.576 110.740,187.304 108.843,181.382 109.770 M229.193 109.772 C 225.283 110.392,222.851 111.964,221.530 114.725 L 220.999 115.834 220.942 120.956 C 220.870 127.530,221.017 128.332,222.655 130.298 C 226.520 134.935,237.969 134.669,241.560 129.857 C 243.089 127.809,243.022 128.192,243.022 121.554 L 243.022 115.664 242.568 114.810 C 240.389 110.710,235.321 108.801,229.193 109.772 M275.886 110.440 C 273.085 111.180,271.294 112.298,269.995 114.119 C 268.810 115.780,268.056 118.265,268.579 118.788 C 268.860 119.069,291.613 119.085,292.137 118.805 C 293.151 118.262,291.620 114.336,289.731 112.639 C 286.853 110.050,280.923 109.109,275.886 110.440 M266.291 162.086 C 379.406 162.151,389.981 162.181,390.363 162.431 C 391.001 162.849,390.989 164.773,390.346 165.194 C 389.654 165.647,4.991 165.803,4.615 165.350 C 3.896 164.484,4.306 162.181,5.212 162.000 C 5.491 161.944,36.526 161.924,74.178 161.956 C 111.831 161.988,198.282 162.047,266.291 162.086 " stroke="none" fill="#ffffff" fill-rule="evenodd"></path><path id="path2" d="M329.219 20.218 C 328.928 20.345,328.640 20.579,328.579 20.738 C 328.252 21.589,328.464 75.626,328.795 75.957 C 329.414 76.576,332.057 76.625,332.654 76.029 C 332.930 75.752,333.047 20.972,332.772 20.540 C 332.415 19.977,330.228 19.779,329.219 20.218 M372.955 20.313 C 372.166 20.565,372.178 20.406,372.175 31.274 C 372.172 43.660,372.218 43.407,370.258 41.743 C 366.401 38.469,364.209 37.559,360.181 37.559 C 350.408 37.559,344.979 44.372,344.726 56.957 C 344.465 69.906,349.585 76.995,359.200 76.995 C 363.447 76.995,366.032 75.906,370.085 72.409 C 372.207 70.578,372.349 70.665,372.474 73.876 C 372.534 75.423,372.619 76.017,372.805 76.171 C 373.242 76.533,375.824 76.460,376.252 76.073 L 376.611 75.747 376.611 48.392 C 376.611 16.832,376.844 20.307,374.721 20.211 C 374.024 20.180,373.229 20.226,372.955 20.313 M332.127 20.482 L 332.565 20.649 332.565 48.219 C 332.565 75.301,332.559 75.791,332.235 75.965 C 331.539 76.337,329.518 76.183,329.058 75.723 L 328.638 75.304 328.638 48.418 C 328.638 20.590,328.633 20.785,329.362 20.493 C 329.884 20.283,331.586 20.277,332.127 20.482 M375.714 20.594 C 375.969 20.662,376.157 20.904,376.276 21.317 C 376.564 22.312,376.424 75.543,376.133 75.834 C 375.799 76.168,373.066 76.140,372.852 75.800 C 372.763 75.659,372.688 74.661,372.685 73.581 C 372.676 70.328,372.313 70.074,370.248 71.878 C 367.951 73.883,364.422 76.142,363.584 76.142 C 363.450 76.142,362.858 76.295,362.271 76.483 C 361.462 76.742,360.732 76.825,359.268 76.825 C 352.184 76.825,346.990 72.187,345.692 64.703 C 345.602 64.187,345.373 62.881,345.183 61.801 C 344.759 59.398,344.789 55.698,345.256 52.838 C 345.544 51.074,345.680 50.480,346.330 48.143 C 349.234 37.697,361.979 34.345,369.953 41.930 C 371.270 43.183,372.183 43.266,372.406 42.153 C 372.465 41.856,372.514 36.940,372.514 31.229 C 372.514 21.520,372.533 20.834,372.813 20.671 C 373.139 20.481,375.099 20.429,375.714 20.594 M250.030 23.834 C 237.398 26.378,230.235 36.042,230.241 50.534 L 230.244 55.570 230.775 57.789 C 233.756 70.247,242.091 76.794,255.004 76.819 C 260.121 76.829,264.336 75.870,268.687 73.706 C 271.324 72.394,271.132 73.482,271.070 60.227 L 271.020 49.519 270.631 49.130 L 270.243 48.741 261.479 48.694 C 251.148 48.638,251.893 48.497,251.909 50.511 C 251.925 52.532,251.399 52.392,259.159 52.448 C 265.390 52.494,265.799 52.516,266.137 52.822 C 266.625 53.264,266.710 69.102,266.228 69.791 C 264.741 71.913,255.240 73.458,250.619 72.329 C 240.107 69.761,234.153 60.212,235.247 47.674 C 236.122 37.654,241.108 30.769,249.338 28.218 C 251.694 27.488,258.590 27.488,260.948 28.218 C 263.830 29.110,266.558 30.352,268.435 31.625 C 269.738 32.510,270.617 32.650,271.018 32.037 C 274.226 27.141,260.416 21.743,250.030 23.834 M260.606 24.195 C 267.930 25.651,272.323 28.906,270.781 31.731 C 270.471 32.299,269.761 32.148,268.358 31.216 C 266.710 30.121,263.930 28.859,261.033 27.891 C 258.815 27.150,251.718 27.140,249.338 27.875 C 242.574 29.964,237.593 35.306,235.852 42.339 C 235.724 42.856,235.538 43.493,235.438 43.755 C 234.723 45.635,234.721 54.424,235.434 56.679 C 235.538 57.008,235.764 57.776,235.935 58.387 C 238.030 65.831,242.739 70.492,250.277 72.581 C 252.190 73.111,258.470 73.183,259.923 72.691 C 260.393 72.532,261.084 72.354,261.460 72.294 C 262.173 72.180,263.893 71.520,265.440 70.767 C 266.902 70.055,266.854 70.399,266.800 61.045 C 266.755 53.415,266.734 52.939,266.432 52.606 C 266.120 52.261,265.941 52.251,259.398 52.204 C 254.413 52.168,252.631 52.102,252.477 51.948 C 252.126 51.597,252.071 49.919,252.394 49.426 L 252.675 48.997 261.346 48.997 C 268.563 48.997,270.071 49.038,270.347 49.239 C 270.747 49.532,270.967 70.972,270.580 71.906 C 270.305 72.570,268.944 73.407,266.838 74.210 C 266.227 74.442,265.382 74.774,264.959 74.946 C 261.205 76.480,252.712 77.006,248.570 75.961 C 242.852 74.517,238.891 72.043,235.606 67.862 C 234.225 66.104,232.397 62.677,232.096 61.281 C 232.026 60.957,231.868 60.492,231.743 60.249 C 231.619 60.006,231.426 59.276,231.313 58.627 C 231.201 57.979,230.993 57.140,230.852 56.765 C 230.525 55.895,230.354 47.657,230.625 45.839 C 230.910 43.924,231.339 41.979,231.679 41.058 C 231.852 40.589,232.045 39.974,232.107 39.693 C 232.826 36.429,237.378 30.223,240.627 28.076 C 242.453 26.870,245.918 25.096,246.449 25.096 C 246.589 25.096,246.989 24.976,247.338 24.830 C 247.687 24.683,248.808 24.418,249.829 24.240 C 250.850 24.061,251.731 23.870,251.787 23.814 C 252.038 23.563,258.926 23.861,260.606 24.195 M295.860 37.884 C 286.998 39.687,281.938 47.577,282.437 58.813 C 282.979 71.009,288.619 76.996,299.563 76.995 C 310.022 76.994,316.372 70.639,317.242 59.298 C 317.949 50.086,314.979 42.675,309.326 39.546 C 306.049 37.731,300.173 37.006,295.860 37.884 M304.823 38.219 C 305.386 38.319,306.500 38.678,307.298 39.016 C 308.096 39.355,308.865 39.678,309.006 39.734 C 312.804 41.254,315.877 46.497,316.885 53.180 C 317.107 54.656,316.972 60.968,316.699 61.801 C 316.592 62.130,316.398 62.936,316.269 63.594 C 315.022 69.933,310.309 74.880,304.140 76.324 C 301.712 76.893,297.658 76.982,295.749 76.508 C 295.012 76.326,294.126 76.128,293.780 76.068 C 290.621 75.524,286.452 71.991,284.803 68.459 C 284.303 67.387,284.136 66.914,283.417 64.533 C 282.671 62.063,282.555 54.166,283.227 51.555 C 283.633 49.976,284.117 48.390,284.240 48.233 C 284.315 48.137,284.475 47.755,284.595 47.384 C 285.975 43.103,291.151 38.946,296.091 38.150 C 297.706 37.890,303.222 37.933,304.823 38.219 M295.290 41.830 C 292.383 42.939,288.519 46.799,288.519 48.594 C 288.519 48.677,288.367 49.030,288.181 49.377 C 287.994 49.725,287.794 50.338,287.736 50.741 C 287.677 51.143,287.473 52.087,287.281 52.838 C 285.864 58.402,287.699 66.782,291.078 70.173 C 297.230 76.348,309.476 73.383,311.559 65.216 C 311.666 64.793,311.867 64.155,312.004 63.798 C 312.918 61.422,312.865 52.937,311.920 50.324 C 311.725 49.787,311.566 49.271,311.566 49.179 C 311.566 47.824,307.741 42.851,306.699 42.851 C 306.635 42.851,306.379 42.711,306.130 42.541 C 304.694 41.557,304.019 41.423,300.213 41.370 L 296.628 41.319 295.290 41.830 M357.149 41.476 C 351.033 43.581,348.026 51.392,349.354 61.722 C 350.570 71.170,356.965 75.777,364.242 72.446 C 366.604 71.364,371.598 66.907,372.282 65.269 C 372.634 64.428,372.619 49.921,372.266 49.076 C 371.623 47.536,367.233 43.599,364.648 42.244 L 363.039 41.400 360.307 41.365 C 358.805 41.345,357.384 41.396,357.149 41.476 M304.326 42.037 C 309.732 43.975,312.425 49.091,312.419 57.412 C 312.411 67.518,307.912 73.069,299.729 73.069 C 291.627 73.068,287.238 67.510,287.257 57.277 C 287.274 48.584,290.680 43.179,297.140 41.592 C 298.281 41.312,303.143 41.613,304.326 42.037 M363.897 42.228 C 366.002 43.228,367.507 44.329,369.572 46.379 C 372.368 49.155,372.164 48.309,372.169 57.180 C 372.173 65.896,372.334 65.138,369.939 67.668 C 360.979 77.136,350.921 73.932,349.617 61.194 C 348.648 51.727,351.072 44.731,356.172 42.274 C 358.391 41.204,361.700 41.185,363.897 42.228 M4.947 162.964 C 4.734 163.524,4.735 164.093,4.951 164.661 L 5.122 165.110 197.616 165.056 C 368.497 165.008,390.129 164.973,390.273 164.746 C 390.482 164.415,390.482 163.199,390.272 162.868 C 390.129 162.641,368.505 162.607,197.612 162.569 L 5.114 162.525 4.947 162.964 M104.237 163.045 C 117.813 163.220,117.798 163.219,117.798 163.828 C 117.798 164.124,117.901 164.244,118.182 164.270 C 119.608 164.405,102.243 164.539,57.406 164.741 C 18.836 164.915,5.870 164.924,5.549 164.778 C 5.066 164.558,4.926 163.313,5.335 162.883 C 5.580 162.626,81.335 162.750,104.237 163.045 " stroke="none" fill="#666666" fill-rule="evenodd"></path><path id="path3" d="M73.948 17.430 C 70.883 19.590,64.039 26.849,58.029 34.315 C 56.100 36.711,52.862 40.904,51.622 42.611 C 45.201 51.454,42.968 54.791,39.007 61.460 C 35.740 66.962,31.371 75.483,27.541 83.824 C 27.304 84.341,26.968 85.070,26.795 85.446 C 26.483 86.123,25.129 89.278,24.304 91.251 C 24.068 91.814,23.768 92.505,23.638 92.787 C 23.246 93.635,22.715 94.920,22.085 96.543 C 21.757 97.388,21.077 99.117,20.574 100.384 C 20.071 101.652,19.458 103.227,19.212 103.884 C 18.966 104.541,18.613 105.467,18.428 105.941 C 18.244 106.415,18.022 107.029,17.936 107.307 C 17.850 107.584,17.541 108.464,17.248 109.262 C 15.522 113.966,14.325 117.611,12.208 124.603 C 12.056 125.106,11.966 125.553,12.009 125.595 C 12.085 125.672,12.202 125.327,13.093 122.407 C 13.336 121.609,14.110 119.266,14.813 117.200 C 15.515 115.134,16.241 112.983,16.426 112.420 C 16.610 111.857,16.900 111.050,17.069 110.627 C 17.239 110.205,17.586 109.283,17.840 108.579 C 18.095 107.875,18.442 106.953,18.610 106.530 C 18.779 106.108,19.152 105.147,19.440 104.396 C 19.727 103.645,20.390 101.993,20.912 100.726 C 21.435 99.458,22.061 97.921,22.304 97.311 C 22.700 96.318,24.037 93.229,24.966 91.165 C 26.512 87.726,26.907 86.890,28.592 83.483 C 29.359 81.933,30.368 79.974,30.836 79.129 C 31.304 78.284,32.297 76.385,33.043 74.909 C 33.790 73.432,34.607 71.857,34.860 71.409 C 35.113 70.960,35.409 70.401,35.518 70.166 C 35.628 69.932,35.785 69.624,35.867 69.484 C 35.950 69.343,36.136 68.961,36.282 68.636 C 36.428 68.311,36.654 67.927,36.784 67.783 C 36.914 67.638,37.072 67.312,37.135 67.058 C 37.199 66.803,37.351 66.512,37.473 66.411 C 37.595 66.309,37.977 65.672,38.322 64.995 C 38.666 64.318,39.173 63.419,39.448 62.996 C 39.723 62.574,40.062 61.984,40.201 61.687 C 40.340 61.389,40.705 60.774,41.012 60.321 C 41.318 59.867,41.685 59.293,41.826 59.044 C 41.967 58.795,42.467 57.968,42.936 57.205 C 43.406 56.443,43.898 55.609,44.030 55.353 C 44.162 55.097,44.319 54.848,44.380 54.802 C 44.484 54.721,45.119 53.811,45.856 52.685 C 46.497 51.706,46.707 51.403,47.717 50.005 C 48.280 49.225,48.779 48.501,48.826 48.396 C 48.873 48.291,49.204 47.827,49.561 47.364 C 50.268 46.447,52.332 43.621,52.959 42.710 C 53.174 42.398,53.850 41.514,54.462 40.747 C 55.941 38.889,57.578 36.748,57.789 36.395 C 58.006 36.031,59.409 34.337,60.499 33.122 C 60.961 32.606,61.645 31.761,62.020 31.244 C 62.394 30.726,62.790 30.226,62.899 30.132 C 63.153 29.913,66.220 26.534,66.764 25.873 C 68.577 23.672,69.493 23.141,68.043 25.132 C 66.791 26.851,66.036 27.952,63.983 31.054 C 63.821 31.298,63.532 31.767,63.340 32.096 C 63.148 32.424,62.610 33.269,62.143 33.974 C 61.677 34.678,61.151 35.523,60.975 35.851 C 60.648 36.462,58.500 40.168,58.205 40.632 C 58.115 40.773,57.922 41.157,57.776 41.485 C 57.412 42.301,57.036 43.056,56.839 43.363 C 56.749 43.504,56.523 43.927,56.338 44.302 C 56.153 44.678,55.928 45.100,55.840 45.241 C 55.751 45.382,55.437 46.035,55.143 46.692 C 54.849 47.350,54.535 48.003,54.447 48.143 C 54.359 48.284,54.201 48.592,54.097 48.826 C 53.992 49.061,53.724 49.638,53.500 50.109 C 53.277 50.580,53.094 51.079,53.093 51.219 C 53.093 51.358,52.939 51.703,52.753 51.985 C 52.566 52.266,52.413 52.659,52.413 52.858 C 52.412 53.057,52.258 53.414,52.070 53.653 C 51.882 53.892,51.728 54.190,51.727 54.316 C 51.726 54.442,51.536 54.930,51.306 55.399 C 51.075 55.869,50.883 56.407,50.880 56.597 C 50.877 56.786,50.723 57.225,50.537 57.572 C 50.350 57.919,50.145 58.533,50.081 58.935 C 50.017 59.338,49.824 59.898,49.652 60.179 C 49.480 60.461,49.339 60.885,49.339 61.121 C 49.339 61.357,49.188 61.830,49.005 62.172 C 48.821 62.515,48.621 63.205,48.559 63.706 C 48.496 64.208,48.332 64.799,48.194 65.020 C 48.055 65.240,47.871 65.932,47.783 66.556 C 47.696 67.180,47.497 67.960,47.341 68.289 C 47.185 68.617,47.007 69.462,46.946 70.166 C 46.885 70.871,46.745 71.663,46.635 71.927 C 46.526 72.192,46.431 73.114,46.424 73.976 C 46.417 74.839,46.337 75.967,46.247 76.483 C 45.736 79.406,45.751 89.256,46.270 92.104 C 46.356 92.574,46.508 93.572,46.608 94.324 C 46.927 96.709,47.710 100.018,48.750 103.372 C 48.983 104.123,49.172 104.823,49.171 104.928 C 49.169 105.033,49.313 105.494,49.491 105.952 C 49.668 106.411,50.254 107.925,50.792 109.317 C 51.755 111.808,52.541 113.547,52.311 112.676 C 52.248 112.441,52.101 112.057,51.983 111.822 C 51.789 111.436,51.548 110.825,50.537 108.152 C 50.018 106.782,49.402 104.860,48.923 103.116 C 48.678 102.224,48.368 101.110,48.234 100.640 C 46.065 93.018,45.776 82.661,47.471 73.239 C 48.185 69.272,49.357 64.689,50.656 60.789 C 53.688 51.683,58.170 42.296,63.418 34.059 C 66.840 28.688,69.920 24.361,73.540 19.837 C 76.286 16.405,76.406 15.699,73.948 17.430 M215.194 19.986 C 214.195 20.284,214.255 18.470,214.255 48.261 C 214.255 80.310,213.945 76.483,216.541 76.483 C 217.865 76.483,218.214 76.426,218.547 76.157 L 218.950 75.830 218.994 48.350 C 219.036 22.131,219.024 20.852,218.732 20.491 C 218.258 19.906,216.368 19.636,215.194 19.986 M93.250 24.086 C 91.915 24.490,92.020 22.226,92.019 50.576 C 92.019 79.991,91.700 76.483,94.376 76.483 C 96.993 76.483,96.699 77.972,96.799 64.211 C 96.898 50.549,96.676 51.889,98.859 51.763 C 106.198 51.338,110.914 53.854,113.376 59.509 C 113.578 59.971,113.878 60.657,114.044 61.033 C 114.210 61.408,114.702 62.638,115.139 63.764 C 116.727 67.866,118.204 71.665,119.020 73.752 C 120.087 76.477,120.095 76.483,122.341 76.483 C 125.267 76.483,125.408 75.867,123.512 71.362 C 123.176 70.563,122.632 69.219,122.302 68.374 C 121.972 67.529,121.468 66.261,121.181 65.557 C 120.895 64.853,120.524 63.931,120.357 63.508 C 117.544 56.395,115.892 53.515,113.534 51.618 C 111.940 50.336,111.962 50.212,113.947 49.220 C 119.293 46.547,121.301 43.167,121.171 37.060 C 121.022 30.103,118.265 26.579,111.396 24.566 L 109.518 24.016 101.665 23.966 C 96.793 23.935,93.598 23.980,93.250 24.086 M105.809 28.319 C 112.932 28.785,115.834 31.534,115.834 37.815 C 115.834 41.668,115.051 43.439,112.522 45.301 C 110.173 47.030,108.334 47.427,101.993 47.577 L 97.542 47.682 97.170 47.283 L 96.799 46.884 96.799 37.906 C 96.799 28.208,96.790 28.304,97.697 28.111 C 98.243 27.995,102.549 28.105,105.809 28.319 M144.089 37.796 C 136.061 39.709,131.631 46.091,131.335 56.167 C 130.925 70.191,136.758 77.082,149.040 77.080 C 156.828 77.078,162.353 75.081,162.355 72.266 C 162.357 70.087,161.660 69.887,158.600 71.187 C 153.109 73.520,145.973 73.567,142.098 71.296 C 138.892 69.418,137.031 65.895,136.554 60.807 C 136.245 57.502,134.526 57.890,149.743 57.835 L 162.520 57.789 163.078 57.230 L 163.636 56.670 163.616 53.559 C 163.569 46.365,160.820 41.394,155.442 38.776 C 152.622 37.404,147.564 36.967,144.089 37.796 M183.269 37.732 C 177.002 38.983,173.326 41.699,174.330 44.336 C 174.775 45.505,175.079 45.473,178.251 43.914 C 182.546 41.803,182.790 41.741,186.769 41.743 C 193.435 41.745,195.988 44.418,195.988 51.395 C 195.988 54.534,196.380 54.329,190.098 54.472 C 184.865 54.592,183.776 54.725,181.056 55.584 C 174.506 57.654,171.128 63.435,172.835 69.654 C 175.055 77.736,186.480 79.826,194.267 73.574 C 196.127 72.080,196.500 72.232,196.500 74.479 C 196.500 76.223,196.774 76.483,198.614 76.483 C 200.844 76.483,200.598 78.323,200.598 61.702 L 200.598 47.274 200.174 45.562 C 198.584 39.138,191.851 36.019,183.269 37.732 M152.198 42.170 C 155.814 43.593,157.877 46.363,158.599 50.766 C 158.952 52.917,158.844 53.693,158.152 53.956 C 157.312 54.275,137.400 54.164,136.934 53.837 C 136.097 53.251,136.888 49.483,138.378 46.951 C 139.715 44.682,142.981 42.167,145.113 41.766 C 146.495 41.506,151.192 41.774,152.198 42.170 M195.500 58.542 C 195.966 58.919,196.214 65.108,195.821 66.568 C 195.302 68.495,190.402 72.194,187.653 72.735 C 181.893 73.868,177.667 71.049,177.660 66.069 C 177.654 61.949,180.639 59.240,185.915 58.577 C 189.595 58.114,194.947 58.095,195.500 58.542 M111.440 97.090 C 111.653 97.131,111.960 97.130,112.123 97.087 C 112.286 97.044,112.113 97.011,111.737 97.013 C 111.362 97.015,111.228 97.050,111.440 97.090 M249.676 121.810 C 249.676 130.073,249.697 133.478,249.723 129.377 C 249.748 125.276,249.748 118.515,249.723 114.353 C 249.697 110.191,249.676 113.547,249.676 121.810 M280.032 109.217 C 280.575 109.251,281.420 109.251,281.910 109.217 C 282.399 109.182,281.955 109.154,280.922 109.155 C 279.889 109.155,279.489 109.183,280.032 109.217 M327.998 109.217 C 328.538 109.251,329.422 109.251,329.962 109.217 C 330.501 109.183,330.060 109.155,328.980 109.155 C 327.900 109.155,327.458 109.183,327.998 109.217 M52.924 114.278 C 52.924 114.461,53.432 115.408,53.530 115.408 C 53.577 115.408,53.488 115.158,53.333 114.853 C 53.016 114.230,52.924 114.100,52.924 114.278 M53.777 115.985 C 53.777 116.168,54.285 117.115,54.384 117.115 C 54.430 117.115,54.342 116.865,54.187 116.560 C 53.870 115.937,53.777 115.807,53.777 115.985 M54.460 117.351 C 54.460 117.534,54.968 118.481,55.066 118.481 C 55.113 118.481,55.025 118.231,54.870 117.926 C 54.553 117.303,54.460 117.173,54.460 117.351 M11.803 126.114 C 11.790 126.322,11.626 126.882,11.438 127.358 C 11.251 127.835,11.100 128.356,11.103 128.517 C 11.107 128.678,11.301 128.271,11.536 127.614 C 11.770 126.957,11.931 126.265,11.894 126.078 C 11.833 125.770,11.824 125.774,11.803 126.114 M10.815 129.754 C 10.709 130.267,10.647 130.714,10.677 130.747 C 10.776 130.854,11.119 129.390,11.063 129.100 C 11.033 128.946,10.922 129.240,10.815 129.754 M10.009 133.184 C 9.866 133.896,10.004 134.033,10.158 133.333 C 10.223 133.038,10.240 132.761,10.197 132.718 C 10.153 132.674,10.069 132.884,10.009 133.184 " stroke="none" fill="#49a1bd" fill-rule="evenodd"></path><path id="path4" d="M73.626 17.059 C 70.659 19.233,62.514 27.771,58.569 32.842 C 58.341 33.136,57.567 34.106,56.850 34.998 C 54.831 37.508,52.052 41.135,50.744 42.964 C 50.285 43.606,49.218 45.092,48.373 46.265 C 42.650 54.211,38.962 60.166,34.121 69.277 C 30.746 75.627,27.042 83.441,23.948 90.734 C 23.429 91.957,22.738 93.572,22.412 94.324 C 22.086 95.075,21.645 96.150,21.432 96.714 C 21.219 97.277,20.611 98.813,20.082 100.128 C 19.552 101.443,18.919 103.056,18.675 103.713 C 18.431 104.370,18.090 105.254,17.918 105.676 C 17.746 106.099,17.322 107.251,16.977 108.237 C 16.631 109.223,16.007 110.990,15.590 112.164 C 14.139 116.244,12.783 120.435,11.694 124.200 C 11.450 125.045,11.110 126.197,10.938 126.761 C 10.354 128.678,9.428 132.561,8.780 135.809 C 8.397 137.731,8.164 140.579,8.293 141.760 C 8.447 143.160,8.878 143.572,11.097 144.439 C 13.153 145.242,19.222 147.390,20.743 147.852 C 21.306 148.024,22.266 148.318,22.877 148.507 C 26.764 149.710,29.080 150.376,31.242 150.913 C 31.946 151.087,32.868 151.320,33.291 151.430 C 33.713 151.540,34.866 151.815,35.851 152.043 C 36.837 152.270,38.143 152.572,38.754 152.714 C 39.364 152.856,40.555 153.081,41.400 153.216 C 42.245 153.350,43.551 153.574,44.302 153.714 C 45.053 153.854,46.359 154.058,47.204 154.167 C 48.050 154.276,49.240 154.435,49.851 154.520 C 58.384 155.710,67.948 154.321,72.110 151.286 C 76.118 148.363,75.973 146.594,71.265 140.930 C 69.154 138.391,63.956 131.428,61.771 128.212 C 57.951 122.589,52.654 112.793,51.849 109.859 C 51.797 109.671,51.517 108.903,51.225 108.152 C 46.800 96.748,45.706 82.257,48.423 71.020 C 48.571 70.410,48.790 69.449,48.910 68.886 C 49.436 66.422,50.252 63.440,50.873 61.716 C 51.042 61.246,51.385 60.209,51.635 59.411 C 51.885 58.613,52.236 57.614,52.413 57.192 C 52.590 56.769,53.018 55.694,53.364 54.802 C 56.673 46.255,63.251 34.402,68.995 26.633 C 69.447 26.022,70.183 25.024,70.631 24.414 C 71.646 23.035,73.892 20.158,75.364 18.353 C 76.495 16.966,76.646 16.620,76.278 16.253 C 75.816 15.790,75.034 16.028,73.626 17.059 M75.698 16.910 C 75.689 17.048,74.718 18.365,73.540 19.837 C 69.920 24.361,66.840 28.688,63.418 34.059 C 55.508 46.473,49.734 60.659,47.471 73.239 C 45.776 82.661,46.065 93.018,48.234 100.640 C 48.368 101.110,48.678 102.224,48.923 103.116 C 49.620 105.652,50.184 107.306,51.399 110.371 C 51.697 111.122,52.080 112.089,52.249 112.518 C 54.939 119.326,61.064 129.076,68.971 139.138 C 74.976 146.779,75.050 146.934,73.609 148.852 C 70.607 152.848,61.876 154.975,52.497 153.995 C 51.464 153.887,49.620 153.697,48.399 153.574 C 44.222 153.152,35.825 151.476,30.730 150.048 C 30.120 149.876,28.890 149.533,27.998 149.284 C 27.106 149.036,25.915 148.690,25.352 148.515 C 20.014 146.865,18.577 146.410,17.840 146.138 C 17.371 145.964,15.988 145.465,14.767 145.028 C 8.739 142.871,8.958 143.041,8.971 140.533 C 8.980 138.791,9.375 135.873,9.910 133.589 C 10.086 132.838,10.426 131.379,10.665 130.346 C 10.905 129.313,11.252 127.968,11.437 127.358 C 11.622 126.748,11.932 125.672,12.126 124.968 C 13.223 120.990,15.440 114.189,17.248 109.262 C 17.541 108.464,17.850 107.584,17.936 107.307 C 18.022 107.029,18.244 106.415,18.428 105.941 C 18.613 105.467,18.966 104.541,19.212 103.884 C 19.458 103.227,20.071 101.652,20.574 100.384 C 21.077 99.117,21.757 97.388,22.085 96.543 C 22.715 94.920,23.246 93.635,23.638 92.787 C 23.768 92.505,24.068 91.814,24.304 91.251 C 25.129 89.278,26.483 86.123,26.795 85.446 C 26.968 85.070,27.304 84.341,27.541 83.824 C 34.611 68.427,40.675 57.776,48.721 46.623 C 52.137 41.889,52.604 41.258,54.606 38.668 C 58.769 33.284,61.755 29.691,65.402 25.680 C 70.790 19.753,75.793 15.492,75.698 16.910 M214.770 19.582 C 214.442 19.751,214.079 20.081,213.961 20.316 C 213.675 20.890,213.641 75.633,213.928 76.167 C 214.654 77.525,218.996 77.232,219.395 75.798 C 219.626 74.970,219.564 20.954,219.332 20.503 C 218.751 19.374,216.179 18.854,214.770 19.582 M328.911 19.552 C 328.638 19.695,328.314 19.944,328.191 20.106 C 328.008 20.347,327.965 25.528,327.961 48.242 L 327.956 76.082 328.366 76.468 C 329.267 77.314,332.112 77.355,333.086 76.535 L 333.589 76.111 333.589 48.288 C 333.589 29.531,333.532 20.357,333.414 20.136 C 332.971 19.308,330.094 18.935,328.911 19.552 M332.471 19.704 C 332.790 19.837,333.133 20.101,333.234 20.290 C 333.434 20.663,333.507 75.197,333.309 75.935 C 332.995 77.109,328.676 77.205,328.232 76.049 C 328.034 75.531,328.111 20.664,328.310 20.291 C 328.724 19.519,331.194 19.170,332.471 19.704 M372.871 19.679 C 371.321 20.112,371.411 19.435,371.354 31.040 C 371.326 36.643,371.243 41.288,371.169 41.362 C 371.095 41.436,370.503 41.061,369.854 40.528 C 361.968 34.059,350.960 36.184,346.575 45.022 C 343.818 50.578,343.261 61.333,345.409 67.520 C 347.410 73.284,352.306 77.604,356.697 77.483 L 357.576 77.459 356.466 77.332 C 351.679 76.782,347.469 72.997,345.647 67.606 C 344.312 63.652,343.838 54.833,344.757 51.046 C 347.129 41.279,352.127 36.855,360.531 37.084 C 364.576 37.195,366.653 38.082,370.510 41.346 C 371.605 42.273,371.565 42.627,371.660 31.106 C 371.707 25.406,371.809 20.615,371.886 20.460 C 372.140 19.947,372.930 19.767,374.654 19.830 C 377.260 19.924,376.953 16.109,376.953 48.406 L 376.953 76.117 376.484 76.485 C 376.063 76.817,375.847 76.848,374.356 76.797 C 372.114 76.719,372.119 76.725,372.005 74.050 C 371.897 71.502,371.842 71.468,370.203 72.906 C 367.366 75.395,364.281 77.016,361.763 77.341 L 360.819 77.463 361.631 77.485 C 363.667 77.541,367.296 75.720,370.147 73.212 C 371.752 71.799,371.781 71.816,371.857 74.195 C 371.917 76.088,371.940 76.191,372.372 76.563 C 373.286 77.349,376.285 77.263,376.866 76.433 C 377.132 76.054,377.280 21.094,377.017 20.409 C 376.738 19.681,374.361 19.262,372.871 19.679 M217.663 19.966 C 219.183 20.259,219.044 17.293,218.994 48.350 L 218.950 75.830 218.547 76.157 C 217.941 76.647,215.091 76.636,214.597 76.142 C 214.170 75.715,214.044 21.011,214.469 20.430 C 214.875 19.874,216.195 19.682,217.663 19.966 M250.960 22.983 C 236.856 24.641,227.486 38.779,229.703 55.058 C 231.358 67.208,237.850 74.569,249.082 77.029 C 256.337 78.618,269.185 75.993,271.359 72.477 L 271.874 71.645 271.928 61.729 C 272.012 46.277,273.253 47.887,261.259 47.887 C 251.110 47.887,251.232 47.856,251.236 50.448 C 251.240 53.099,251.227 53.094,258.852 53.094 C 264.189 53.094,265.107 53.131,265.434 53.360 L 265.813 53.626 265.813 61.346 C 265.813 70.083,265.902 69.525,264.397 70.214 C 258.517 72.906,250.578 72.648,245.371 69.595 C 239.355 66.068,236.184 59.887,235.768 50.875 L 235.622 47.717 235.692 51.046 C 235.926 62.347,241.866 70.310,251.291 71.958 C 256.719 72.908,265.203 71.275,265.931 69.142 C 266.347 67.923,266.196 53.507,265.762 53.058 C 265.743 53.039,262.714 52.981,259.031 52.930 C 251.136 52.822,251.619 52.954,251.501 50.873 C 251.341 48.040,250.970 48.143,261.286 48.143 C 270.812 48.143,270.657 48.125,271.266 49.319 C 271.787 50.339,271.812 71.003,271.294 72.143 C 269.738 75.569,256.721 78.427,249.509 76.926 C 237.760 74.481,231.211 66.851,229.773 53.933 L 229.401 50.589 229.770 47.189 C 231.154 34.441,237.732 26.385,249.082 23.539 C 251.681 22.888,259.158 22.932,261.629 23.613 C 269.062 25.663,271.788 27.518,271.788 30.527 C 271.788 33.144,270.551 33.602,268.032 31.917 C 260.426 26.825,250.224 26.663,243.696 31.531 C 239.440 34.705,236.145 40.996,235.846 46.522 L 235.781 47.717 235.936 46.607 C 236.022 45.997,236.169 45.190,236.264 44.814 C 236.358 44.439,236.483 43.863,236.540 43.534 C 238.959 29.675,255.240 23.612,267.691 31.932 C 270.750 33.977,272.013 33.545,272.015 30.452 C 272.017 28.260,270.857 27.015,267.264 25.354 C 265.835 24.693,264.836 24.347,261.545 23.376 C 260.301 23.009,253.035 22.740,250.960 22.983 M93.201 23.648 C 91.604 24.151,91.769 21.205,91.715 50.167 C 91.689 64.218,91.711 75.893,91.764 76.110 C 92.051 77.293,96.499 77.340,97.127 76.167 C 97.254 75.930,97.311 72.258,97.311 64.406 C 97.311 50.941,97.044 52.326,99.645 52.326 C 108.206 52.326,111.075 54.457,114.470 63.338 C 115.144 65.101,115.561 66.181,116.679 69.057 C 117.081 70.090,117.699 71.703,118.053 72.642 C 119.657 76.892,119.758 76.995,122.322 76.995 C 126.265 76.995,126.230 76.462,121.541 65.216 C 121.247 64.511,120.867 63.551,120.696 63.082 C 118.692 57.582,116.299 53.329,114.238 51.599 C 112.733 50.336,112.721 50.395,114.689 49.334 C 120.366 46.271,122.774 40.902,121.542 34.048 C 120.581 28.699,115.889 24.594,109.716 23.700 C 107.624 23.397,94.133 23.355,93.201 23.648 M111.396 24.566 C 118.265 26.579,121.022 30.103,121.171 37.060 C 121.301 43.167,119.293 46.547,113.947 49.220 C 111.962 50.212,111.940 50.336,113.534 51.618 C 115.892 53.515,117.544 56.395,120.357 63.508 C 120.524 63.931,120.895 64.853,121.181 65.557 C 121.468 66.261,121.972 67.529,122.302 68.374 C 122.632 69.219,123.176 70.563,123.512 71.362 C 125.408 75.867,125.267 76.483,122.341 76.483 C 120.095 76.483,120.087 76.477,119.020 73.752 C 118.204 71.665,116.727 67.866,115.139 63.764 C 114.702 62.638,114.210 61.408,114.044 61.033 C 113.878 60.657,113.578 59.971,113.376 59.509 C 110.914 53.854,106.198 51.338,98.859 51.763 C 96.676 51.889,96.898 50.549,96.799 64.211 C 96.699 77.972,96.993 76.483,94.376 76.483 C 91.700 76.483,92.019 79.991,92.019 50.576 C 92.020 25.833,92.026 25.342,92.354 24.804 C 92.884 23.935,93.142 23.912,101.665 23.966 L 109.518 24.016 111.396 24.566 M97.697 28.111 C 96.790 28.304,96.799 28.208,96.799 37.906 L 96.799 46.884 97.170 47.283 L 97.542 47.682 101.993 47.577 C 108.334 47.427,110.173 47.030,112.522 45.301 C 115.051 43.439,115.834 41.668,115.834 37.815 C 115.834 31.534,112.932 28.785,105.809 28.319 C 102.549 28.105,98.243 27.995,97.697 28.111 M109.332 29.303 C 113.472 30.512,115.578 33.351,115.578 37.724 C 115.578 43.247,112.084 46.562,105.847 46.956 C 101.801 47.212,97.891 47.162,97.579 46.851 C 97.240 46.511,97.167 29.612,97.502 28.985 C 97.814 28.401,107.099 28.651,109.332 29.303 M145.369 36.985 C 137.491 38.596,133.088 43.098,131.285 51.387 C 130.519 54.909,130.718 61.952,131.675 65.216 C 133.623 71.855,137.212 75.502,143.358 77.085 C 145.749 77.701,152.865 77.667,155.442 77.027 C 161.604 75.496,163.583 74.007,162.884 71.425 C 162.375 69.539,161.676 69.454,158.173 70.854 C 153.139 72.867,146.573 73.032,142.979 71.238 C 139.378 69.440,137.290 65.673,136.970 60.397 C 136.822 57.955,135.265 58.216,149.986 58.216 L 162.671 58.216 163.220 57.754 C 164.031 57.072,164.235 56.416,164.229 54.508 C 164.222 52.430,163.835 49.156,163.478 48.165 C 163.330 47.754,163.210 47.306,163.210 47.169 C 163.210 46.284,161.271 42.898,159.877 41.347 C 156.930 38.069,150.105 36.017,145.369 36.985 M184.379 36.981 C 179.684 37.804,174.884 40.009,174.075 41.713 C 172.780 44.443,174.341 46.539,176.697 45.232 C 182.235 42.160,186.460 41.275,190.132 42.420 C 193.980 43.620,195.146 45.439,195.269 50.436 C 195.365 54.321,195.879 53.945,190.450 53.960 C 188.097 53.967,185.787 54.036,185.318 54.113 C 176.326 55.588,172.041 59.560,172.051 66.411 C 172.062 73.620,176.349 77.422,184.464 77.422 C 189.136 77.422,190.573 76.958,194.078 74.314 C 195.817 73.002,195.988 73.019,195.988 74.503 C 195.988 76.526,196.503 76.995,198.723 76.995 C 200.088 76.995,200.841 76.701,201.000 76.106 C 201.187 75.407,201.121 47.973,200.929 46.778 C 199.873 40.193,195.702 37.051,187.879 36.947 C 186.189 36.925,184.614 36.940,184.379 36.981 M296.714 36.990 C 289.161 38.191,283.743 43.698,282.287 51.658 C 279.769 65.412,285.867 76.915,295.945 77.420 L 297.311 77.488 296.116 77.348 C 287.183 76.297,281.930 68.942,281.965 57.533 C 282.006 44.695,288.354 37.380,299.701 37.097 C 312.445 36.780,319.212 45.739,317.563 60.745 C 316.566 69.820,310.964 76.192,302.971 77.341 L 301.921 77.492 303.116 77.419 C 307.091 77.175,311.855 74.225,314.415 70.423 C 319.678 62.604,319.124 48.506,313.294 41.912 C 309.922 38.097,302.887 36.009,296.714 36.990 M152.710 37.797 C 159.478 39.354,163.562 45.255,163.616 53.559 L 163.636 56.670 163.078 57.230 L 162.520 57.789 149.743 57.835 C 134.526 57.890,136.245 57.502,136.554 60.807 C 137.031 65.895,138.892 69.418,142.098 71.296 C 145.973 73.567,153.109 73.520,158.600 71.187 C 161.660 69.887,162.357 70.087,162.355 72.266 C 162.353 75.081,156.828 77.078,149.040 77.080 C 136.758 77.082,130.925 70.191,131.335 56.167 C 131.631 46.091,136.061 39.709,144.089 37.796 C 146.188 37.295,150.531 37.296,152.710 37.797 M191.901 37.810 C 196.556 38.860,199.107 41.251,200.174 45.562 L 200.598 47.274 200.598 61.702 C 200.598 78.323,200.844 76.483,198.614 76.483 C 196.774 76.483,196.500 76.223,196.500 74.479 C 196.500 72.232,196.127 72.080,194.267 73.574 C 186.480 79.826,175.055 77.736,172.835 69.654 C 171.128 63.435,174.506 57.654,181.056 55.584 C 183.776 54.725,184.865 54.592,190.098 54.472 C 196.380 54.329,195.988 54.534,195.988 51.395 C 195.988 44.418,193.435 41.745,186.769 41.743 C 182.790 41.741,182.546 41.803,178.251 43.914 C 175.079 45.473,174.775 45.505,174.330 44.336 C 172.705 40.068,183.743 35.968,191.901 37.810 M145.113 41.766 C 141.071 42.526,136.974 47.592,136.628 52.258 C 136.478 54.283,135.516 54.119,147.530 54.119 C 158.527 54.119,158.489 54.122,158.742 53.207 C 159.507 50.434,156.970 44.946,154.076 43.114 C 152.153 41.897,147.855 41.251,145.113 41.766 M300.299 41.987 C 307.976 42.463,311.751 47.521,311.730 57.304 C 311.726 59.167,311.657 60.999,311.577 61.374 C 309.869 69.399,306.373 72.527,299.315 72.347 C 293.675 72.204,290.696 69.944,288.886 64.436 C 288.158 62.220,287.709 57.806,287.979 55.516 C 288.086 54.607,288.222 53.402,288.281 52.838 C 288.853 47.384,292.414 43.382,297.823 42.117 C 298.095 42.053,298.075 42.033,297.725 42.017 C 295.717 41.927,291.962 44.280,290.414 46.598 C 287.107 51.551,286.786 61.312,289.740 67.093 C 293.323 74.106,304.844 74.684,309.239 68.072 C 311.353 64.891,311.982 62.126,311.861 56.532 C 311.760 51.839,311.467 50.500,309.804 47.134 C 308.302 44.092,304.595 42.021,300.469 41.919 L 298.335 41.866 300.299 41.987 M358.088 42.009 C 352.763 43.345,349.875 48.766,349.908 57.362 C 349.939 65.145,351.863 69.757,355.975 71.903 L 357.064 72.471 359.710 72.471 L 362.356 72.471 363.860 71.752 C 366.529 70.475,371.072 66.387,371.489 64.885 C 371.716 64.070,371.714 50.307,371.487 49.490 C 371.138 48.235,367.075 44.402,364.816 43.198 C 362.661 42.050,359.885 41.559,358.088 42.009 M151.588 42.497 C 155.440 43.773,157.887 47.095,158.194 51.462 C 158.361 53.837,159.502 53.606,147.589 53.606 C 136.098 53.606,136.790 53.693,137.000 52.289 C 138.130 44.759,144.834 40.258,151.588 42.497 M362.868 42.558 C 365.100 43.340,366.935 44.629,369.410 47.154 C 371.514 49.298,371.316 48.257,371.318 57.221 L 371.319 65.019 370.863 65.587 C 365.576 72.172,359.293 74.259,354.773 70.932 C 350.252 67.603,348.552 56.955,351.283 49.065 C 353.198 43.530,357.980 40.844,362.868 42.558 M188.476 58.326 C 181.338 58.682,177.653 61.320,177.660 66.069 C 177.667 71.049,181.893 73.868,187.653 72.735 C 190.402 72.194,195.302 68.495,195.821 66.568 C 196.214 65.108,195.966 58.919,195.500 58.542 C 195.102 58.220,192.312 58.135,188.476 58.326 M194.975 58.905 C 195.286 59.071,195.305 59.300,195.305 62.898 L 195.305 66.715 194.494 67.688 C 193.336 69.079,191.188 70.756,189.501 71.586 L 188.050 72.300 185.552 72.358 C 180.663 72.472,178.168 70.345,178.171 66.069 C 178.175 61.784,181.443 59.262,187.452 58.907 C 190.799 58.709,194.607 58.708,194.975 58.905 M88.045 92.873 L 87.580 93.239 87.580 115.245 L 87.580 137.252 87.988 137.519 C 88.350 137.757,89.839 137.780,101.517 137.729 L 114.639 137.672 116.969 137.219 C 125.485 135.564,130.035 132.150,131.822 126.078 C 132.450 123.941,132.451 106.527,131.822 104.409 C 129.904 97.943,125.254 94.634,115.920 93.091 C 113.288 92.657,113.205 92.654,100.892 92.581 L 88.510 92.507 88.045 92.873 M146.662 92.860 C 145.959 93.563,145.949 96.949,146.648 97.515 C 147.225 97.983,152.431 97.979,152.854 97.511 C 153.343 96.971,153.265 93.152,152.758 92.797 C 152.132 92.358,147.111 92.411,146.662 92.860 M114.042 93.601 C 124.229 94.633,129.971 98.588,131.325 105.506 C 131.635 107.092,131.685 108.125,131.751 114.469 C 131.826 121.706,131.789 122.408,131.171 125.566 C 130.008 131.506,124.149 135.650,115.493 136.655 C 114.178 136.807,112.636 137.006,112.065 137.096 C 110.613 137.325,89.023 137.313,88.593 137.083 C 88.123 136.832,88.068 93.946,88.537 93.476 C 88.928 93.086,109.968 93.188,114.042 93.601 M152.357 93.482 C 152.693 93.818,152.744 96.611,152.420 96.936 C 152.280 97.076,151.453 97.140,149.808 97.140 C 148.163 97.140,147.336 97.076,147.196 96.936 C 146.872 96.611,146.923 93.818,147.259 93.482 C 147.653 93.088,151.963 93.088,152.357 93.482 M94.396 97.116 L 93.982 97.452 93.982 115.204 C 93.982 132.421,93.992 132.967,94.307 133.315 C 94.670 133.717,108.998 133.873,111.481 133.502 C 112.091 133.412,113.280 133.257,114.122 133.159 C 120.235 132.446,124.240 129.468,125.596 124.627 C 126.136 122.699,126.063 107.687,125.503 105.676 C 124.110 100.665,119.715 97.748,112.591 97.104 C 108.469 96.732,94.860 96.741,94.396 97.116 M114.042 97.981 C 120.860 99.305,124.245 101.945,124.950 106.489 C 125.192 108.051,125.203 122.594,124.963 124.074 C 124.296 128.185,121.345 130.730,115.578 132.172 L 113.444 132.705 104.161 132.780 C 96.491 132.842,94.852 132.815,94.731 132.625 C 94.405 132.111,94.550 97.859,94.878 97.656 C 95.512 97.264,111.772 97.541,114.042 97.981 M178.318 104.944 C 172.288 105.511,167.651 109.114,166.296 114.288 C 165.711 116.521,165.758 126.999,166.363 129.084 C 167.610 133.385,170.943 136.490,175.501 137.598 C 181.863 139.144,190.118 138.259,194.134 135.602 C 195.056 134.992,195.134 135.134,195.134 137.403 C 195.134 142.929,190.944 145.827,182.928 145.846 C 178.196 145.858,176.450 145.378,173.136 143.155 C 171.603 142.126,171.346 142.153,169.123 143.579 C 166.856 145.033,166.752 145.518,168.418 146.869 C 169.692 147.904,171.807 148.925,174.904 150.001 L 177.294 150.832 181.733 150.818 C 193.373 150.779,199.736 147.490,202.018 140.333 C 202.487 138.863,202.694 106.382,202.238 105.758 C 202.012 105.448,201.750 105.416,199.022 105.367 C 195.376 105.302,195.321 105.326,195.180 107.092 C 195.076 108.379,194.913 108.492,194.025 107.886 C 190.601 105.551,184.344 104.379,178.318 104.944 M226.291 104.942 C 220.008 105.513,215.427 109.097,214.074 114.502 C 213.500 116.793,213.654 127.716,214.286 129.577 C 216.329 135.594,221.570 138.397,230.483 138.239 C 235.856 138.143,238.723 137.540,241.345 135.953 C 243.138 134.868,243.207 134.940,243.072 137.752 C 242.687 145.747,229.458 148.959,220.936 143.126 C 219.532 142.164,219.253 142.181,217.405 143.336 C 215.040 144.815,214.751 145.209,215.376 146.102 C 215.938 146.904,220.222 149.381,221.046 149.381 C 221.136 149.381,221.584 149.527,222.043 149.706 C 224.943 150.835,224.930 150.833,229.535 150.819 C 235.011 150.801,239.323 150.114,241.997 148.833 C 246.554 146.651,248.833 144.076,249.974 139.821 L 250.363 138.370 250.363 122.179 L 250.363 105.988 249.960 105.661 C 249.600 105.370,249.260 105.335,246.782 105.335 C 243.347 105.335,243.109 105.444,243.105 107.012 C 243.100 108.500,242.973 108.584,241.797 107.863 C 237.794 105.411,232.374 104.390,226.291 104.942 M276.910 104.981 C 270.404 105.754,265.561 108.543,263.280 112.832 C 260.828 117.440,260.815 126.538,263.254 130.697 C 265.002 133.680,267.777 135.600,273.123 137.527 L 275.225 138.284 280.122 138.282 C 283.645 138.280,285.307 138.214,286.044 138.046 C 286.607 137.917,287.460 137.763,287.940 137.704 C 290.257 137.417,296.578 134.762,297.384 133.737 C 297.948 133.020,297.688 132.635,295.791 131.384 C 293.382 129.796,293.448 129.805,291.533 130.847 C 281.886 136.095,267.917 132.465,268.407 124.836 L 268.459 124.029 283.499 123.944 C 296.263 123.871,298.584 123.821,298.836 123.612 C 299.361 123.176,299.134 116.790,298.531 115.016 C 295.966 107.473,287.808 103.687,276.910 104.981 M328.382 104.936 C 325.217 105.296,320.676 106.906,318.791 108.337 C 317.788 109.098,317.543 108.868,317.539 107.156 C 317.535 105.432,317.350 105.335,314.061 105.335 C 311.405 105.335,310.868 105.457,310.561 106.130 C 310.426 106.425,310.371 110.968,310.371 121.740 L 310.371 136.934 310.790 137.353 C 311.350 137.913,316.535 138.011,317.178 137.473 C 317.534 137.177,317.536 137.100,317.582 126.419 L 317.627 115.664 318.191 114.583 C 319.916 111.280,322.901 110.030,329.065 110.030 C 333.125 110.030,334.164 110.210,336.133 111.254 C 337.025 111.727,337.464 111.752,338.033 111.363 C 338.902 110.768,341.027 108.756,341.329 108.242 L 341.643 107.708 341.059 107.157 C 339.351 105.546,332.924 104.420,328.382 104.936 M146.659 105.667 C 146.128 106.198,146.121 106.410,146.173 122.091 C 146.221 136.528,146.234 137.066,146.548 137.413 C 146.984 137.894,152.400 137.972,152.869 137.504 C 153.316 137.057,153.273 106.023,152.825 105.618 C 152.318 105.159,147.126 105.200,146.659 105.667 M186.455 105.928 C 189.268 106.323,191.799 107.244,193.802 108.602 C 195.372 109.667,195.804 109.465,195.941 107.599 C 195.998 106.832,196.117 106.373,196.296 106.231 C 196.728 105.890,201.174 105.936,201.524 106.286 C 201.920 106.682,201.930 136.177,201.535 138.806 C 200.393 146.411,194.113 149.951,181.733 149.971 L 177.123 149.979 175.245 149.352 C 170.953 147.919,168.160 146.354,168.161 145.382 C 168.161 144.949,170.851 143.192,171.515 143.192 C 171.750 143.192,172.455 143.539,173.082 143.963 C 178.979 147.950,188.658 147.652,193.372 143.339 C 195.177 141.687,195.983 139.627,195.983 136.662 C 195.983 134.118,195.543 133.731,193.932 134.861 C 192.659 135.754,191.563 136.238,189.415 136.854 L 187.708 137.344 182.330 137.344 L 176.953 137.345 175.297 136.804 C 170.543 135.252,167.696 132.342,166.889 128.212 C 166.560 126.529,166.592 116.236,166.931 114.593 C 168.326 107.836,175.948 104.453,186.455 105.928 M234.230 105.919 C 237.153 106.338,239.550 107.210,241.604 108.602 C 243.226 109.702,243.788 109.447,243.793 107.608 C 243.797 106.087,243.755 106.111,246.558 106.051 C 250.113 105.974,249.670 103.866,249.734 121.156 C 249.788 135.680,249.768 136.408,249.223 139.723 C 248.121 146.424,241.012 150.057,228.992 150.062 L 225.376 150.064 223.273 149.372 C 219.965 148.283,219.012 147.867,217.480 146.840 C 215.528 145.533,215.525 145.391,217.429 144.149 C 219.195 142.998,219.550 142.960,220.713 143.795 C 223.363 145.699,227.742 146.953,231.126 146.776 C 239.665 146.330,243.778 143.027,243.787 136.608 C 243.791 133.927,243.429 133.640,241.647 134.913 C 240.337 135.850,239.659 136.158,237.473 136.803 L 235.681 137.333 230.303 137.339 L 224.925 137.345 223.303 136.856 C 218.596 135.436,215.677 132.558,214.767 128.439 C 214.320 126.417,214.268 117.590,214.690 115.250 C 216.014 107.904,223.412 104.371,234.230 105.919 M285.800 105.938 C 292.336 106.898,296.715 110.545,298.093 116.176 C 298.477 117.746,298.747 121.934,298.522 122.831 L 298.414 123.261 283.661 123.261 C 266.581 123.261,267.699 123.144,267.694 124.931 C 267.670 133.196,281.292 136.925,291.753 131.516 C 292.714 131.019,293.312 130.806,293.546 130.877 C 294.077 131.038,296.524 132.702,296.629 132.974 C 296.936 133.765,292.978 135.660,288.519 136.857 L 286.726 137.339 280.567 137.342 C 274.633 137.345,274.378 137.332,273.568 136.978 C 273.106 136.776,272.074 136.363,271.276 136.062 C 263.308 133.051,260.593 126.634,262.754 115.920 C 263.567 111.889,267.153 108.482,272.557 106.606 C 275.062 105.736,282.031 105.384,285.800 105.938 M336.150 106.008 C 339.126 106.589,340.834 107.461,340.440 108.197 C 340.108 108.818,337.492 111.004,337.195 110.908 C 337.043 110.860,336.265 110.551,335.467 110.223 C 330.491 108.177,322.012 109.217,318.990 112.245 C 316.923 114.315,316.859 114.756,316.859 126.890 C 316.859 138.547,317.208 137.260,314.042 137.260 C 310.848 137.260,311.225 139.352,311.225 121.639 C 311.225 103.926,310.848 106.018,314.042 106.018 C 316.862 106.018,316.859 106.016,316.859 107.896 C 316.859 109.958,317.312 110.224,318.912 109.102 C 323.102 106.163,330.315 104.868,336.150 106.008 M152.420 106.223 C 152.717 106.520,152.717 136.758,152.420 137.055 C 152.134 137.341,147.481 137.341,147.196 137.055 C 146.899 136.758,146.899 106.520,147.196 106.223 C 147.336 106.083,148.163 106.018,149.808 106.018 C 151.453 106.018,152.280 106.083,152.420 106.223 M181.904 108.862 C 174.356 110.070,172.255 112.869,172.261 121.709 C 172.266 130.466,174.274 133.117,181.715 134.196 L 184.223 134.559 186.541 134.189 C 191.623 133.376,195.164 130.672,195.805 127.113 C 196.049 125.764,196.044 117.056,195.799 115.885 C 194.828 111.244,188.140 107.864,181.904 108.862 M229.535 108.917 C 224.374 109.790,221.384 112.069,220.413 115.873 C 219.607 119.032,219.978 127.055,221.028 129.134 C 222.690 132.428,228.369 134.970,232.858 134.430 C 238.746 133.722,242.706 131.173,243.561 127.541 C 243.886 126.160,243.876 116.685,243.548 115.455 C 242.362 110.999,235.675 107.879,229.535 108.917 M277.134 109.442 C 272.026 110.108,267.856 113.930,267.794 118.004 C 267.764 119.929,266.584 119.753,279.946 119.811 C 294.419 119.873,293.309 120.082,292.975 117.359 C 292.244 111.378,286.048 108.282,277.134 109.442 M186.893 109.785 C 190.655 110.395,193.239 111.985,194.593 114.524 L 195.134 115.541 195.134 121.490 L 195.134 127.439 194.665 128.366 C 191.158 135.297,177.137 135.510,173.746 128.684 C 172.974 127.130,172.649 121.137,173.116 117.062 C 173.582 112.990,176.337 110.560,181.382 109.770 C 183.914 109.374,184.358 109.375,186.893 109.785 M234.590 109.759 C 238.593 110.378,241.034 111.923,242.568 114.810 L 243.022 115.664 243.022 121.554 C 243.022 128.192,243.089 127.809,241.560 129.857 C 237.969 134.669,226.520 134.935,222.655 130.298 C 221.017 128.332,220.870 127.530,220.942 120.956 L 220.999 115.834 221.530 114.725 C 223.428 110.757,228.520 108.821,234.590 109.759 M285.345 110.372 C 289.323 111.405,291.966 114.170,292.385 117.736 C 292.542 119.068,293.265 118.993,280.284 118.993 C 267.988 118.993,268.374 119.021,268.374 118.135 C 268.374 115.816,270.734 112.629,273.496 111.219 C 276.032 109.923,281.980 109.497,285.345 110.372 M14.567 161.972 C 19.527 161.997,27.594 161.997,32.493 161.972 C 37.392 161.947,33.333 161.926,23.474 161.926 C 13.615 161.926,9.607 161.947,14.567 161.972 M4.606 162.275 C 4.487 162.418,4.439 162.584,4.500 162.645 C 4.560 162.705,4.609 162.662,4.609 162.550 C 4.609 162.437,4.782 162.275,4.994 162.191 C 5.254 162.086,5.288 162.033,5.100 162.025 C 4.947 162.019,4.725 162.132,4.606 162.275 M212.856 162.142 C 213.823 162.172,215.360 162.172,216.270 162.142 C 217.181 162.111,216.389 162.086,214.511 162.086 C 212.633 162.086,211.888 162.111,212.856 162.142 M225.395 162.142 C 226.310 162.172,227.808 162.172,228.724 162.142 C 229.639 162.111,228.890 162.086,227.059 162.086 C 225.228 162.086,224.479 162.111,225.395 162.142 M254.260 162.143 C 267.390 162.167,288.824 162.167,301.892 162.143 C 314.959 162.118,304.217 162.099,278.020 162.099 C 251.822 162.099,241.131 162.118,254.260 162.143 M4.331 163.917 C 4.351 164.559,4.466 165.171,4.595 165.326 C 4.803 165.577,17.507 165.596,157.127 165.557 L 309.432 165.515 157.121 165.429 C 73.349 165.382,4.751 165.286,4.680 165.215 C 4.609 165.144,4.493 164.568,4.423 163.935 L 4.294 162.783 4.331 163.917 " stroke="none" fill="#9acfb8" fill-rule="evenodd"></path><path id="path5" d="M329.036 19.711 C 328.738 19.841,328.412 20.101,328.310 20.291 C 328.111 20.664,328.034 75.531,328.232 76.049 C 328.676 77.205,332.995 77.109,333.309 75.935 C 333.507 75.197,333.434 20.663,333.234 20.290 C 332.822 19.519,330.282 19.169,329.036 19.711 M372.396 20.000 C 371.758 20.321,371.748 20.475,371.660 31.106 C 371.565 42.627,371.605 42.273,370.510 41.346 C 366.653 38.082,364.576 37.195,360.531 37.084 C 352.127 36.855,347.129 41.279,344.757 51.046 C 344.190 53.380,344.197 61.289,344.768 64.115 C 346.596 73.161,351.187 77.414,359.112 77.403 C 363.699 77.397,366.274 76.353,370.203 72.906 C 371.842 71.468,371.897 71.502,372.005 74.050 C 372.119 76.725,372.114 76.719,374.356 76.797 C 375.847 76.848,376.063 76.817,376.484 76.485 L 376.953 76.117 376.953 48.406 C 376.953 16.036,377.281 19.911,374.535 19.850 C 373.505 19.827,372.614 19.890,372.396 20.000 M332.166 20.156 C 332.429 20.256,332.702 20.428,332.772 20.540 C 333.047 20.972,332.930 75.752,332.654 76.029 C 332.057 76.625,329.414 76.576,328.795 75.957 C 328.464 75.626,328.252 21.589,328.579 20.738 C 328.831 20.081,331.030 19.724,332.166 20.156 M376.300 20.653 C 376.598 21.020,376.611 22.184,376.611 48.392 L 376.611 75.747 376.252 76.073 C 375.824 76.460,373.242 76.533,372.805 76.171 C 372.619 76.017,372.534 75.423,372.474 73.876 C 372.349 70.665,372.207 70.578,370.085 72.409 C 366.032 75.906,363.447 76.995,359.200 76.995 C 349.585 76.995,344.465 69.906,344.726 56.957 C 344.979 44.372,350.408 37.559,360.181 37.559 C 364.209 37.559,366.401 38.469,370.258 41.743 C 372.218 43.407,372.172 43.660,372.175 31.274 C 372.176 25.575,372.241 20.814,372.318 20.693 C 372.741 20.025,375.767 19.994,376.300 20.653 M251.046 23.155 C 239.139 24.856,231.223 33.798,229.770 47.189 L 229.401 50.589 229.773 53.933 C 231.211 66.851,237.760 74.481,249.509 76.926 C 256.721 78.427,269.738 75.569,271.294 72.143 C 271.812 71.003,271.787 50.339,271.266 49.319 C 270.657 48.125,270.812 48.143,261.286 48.143 C 250.970 48.143,251.341 48.040,251.501 50.873 C 251.619 52.954,251.136 52.822,259.031 52.930 C 262.714 52.981,265.743 53.039,265.762 53.058 C 266.196 53.507,266.347 67.923,265.931 69.142 C 265.203 71.275,256.719 72.908,251.291 71.958 C 242.109 70.352,236.091 62.531,235.661 51.643 C 235.254 41.340,239.303 33.251,246.607 29.775 C 252.948 26.757,261.619 27.624,268.032 31.917 C 270.551 33.602,271.788 33.144,271.788 30.527 C 271.788 27.518,268.987 25.613,261.629 23.622 C 259.974 23.174,253.051 22.868,251.046 23.155 M260.296 23.832 C 267.611 25.312,271.790 27.991,271.394 30.946 C 271.168 32.632,270.234 32.846,268.435 31.625 C 266.558 30.352,263.830 29.110,260.948 28.218 C 258.590 27.488,251.694 27.488,249.338 28.218 C 241.108 30.769,236.122 37.654,235.247 47.674 C 234.153 60.212,240.107 69.761,250.619 72.329 C 255.240 73.458,264.741 71.913,266.228 69.791 C 266.710 69.102,266.625 53.264,266.137 52.822 C 265.799 52.516,265.390 52.494,259.159 52.448 C 251.399 52.392,251.925 52.532,251.909 50.511 C 251.893 48.497,251.148 48.638,261.479 48.694 L 270.243 48.741 270.631 49.130 L 271.020 49.519 271.070 60.227 C 271.132 73.482,271.324 72.394,268.687 73.706 C 264.336 75.870,260.121 76.829,255.004 76.819 C 242.091 76.794,233.756 70.247,230.775 57.789 L 230.244 55.570 230.241 50.534 C 230.239 44.974,230.376 43.984,231.698 39.965 C 235.602 28.106,247.697 21.282,260.296 23.832 M296.884 37.168 C 287.235 38.854,282.001 45.999,281.965 57.533 C 281.929 69.194,287.204 76.368,296.543 77.359 C 308.320 78.608,316.293 72.306,317.563 60.745 C 318.771 49.759,315.153 41.370,307.924 38.389 C 305.170 37.253,299.796 36.659,296.884 37.168 M304.567 37.891 C 312.238 39.450,316.562 45.065,317.242 54.347 C 318.267 68.349,311.519 76.994,299.563 76.995 C 288.619 76.996,282.979 71.009,282.437 58.813 C 281.938 47.577,286.998 39.687,295.860 37.884 C 297.986 37.451,302.420 37.455,304.567 37.891 M297.140 41.592 C 290.680 43.179,287.274 48.584,287.257 57.277 C 287.238 67.510,291.627 73.068,299.729 73.069 C 307.912 73.069,312.411 67.518,312.419 57.412 C 312.425 49.091,309.732 43.975,304.326 42.037 C 303.143 41.613,298.281 41.312,297.140 41.592 M357.832 41.595 C 351.945 42.760,348.558 50.842,349.617 61.194 C 350.921 73.932,360.979 77.136,369.939 67.668 C 372.334 65.138,372.173 65.896,372.169 57.180 C 372.164 48.309,372.368 49.155,369.572 46.379 C 365.525 42.360,361.746 40.821,357.832 41.595 M303.884 42.392 C 306.280 43.178,308.878 45.258,309.804 47.134 C 311.467 50.500,311.760 51.839,311.861 56.532 C 312.091 67.219,308.104 72.538,299.853 72.552 C 295.714 72.560,293.792 71.855,291.557 69.513 C 286.231 63.931,286.408 50.162,291.875 44.867 C 294.709 42.123,299.838 41.065,303.884 42.392 M362.830 42.320 C 365.840 43.373,370.968 47.620,371.487 49.490 C 371.714 50.307,371.716 64.070,371.489 64.885 C 371.072 66.387,366.529 70.475,363.860 71.752 L 362.356 72.471 359.710 72.471 L 357.064 72.471 355.975 71.903 C 351.863 69.757,349.939 65.145,349.908 57.362 C 349.865 46.278,355.475 39.747,362.830 42.320 M4.999 162.175 C 4.365 162.453,4.205 164.897,4.796 165.271 C 5.277 165.576,389.966 165.468,390.402 165.163 C 390.968 164.766,390.965 162.823,390.397 162.458 C 389.928 162.157,5.686 161.875,4.999 162.175 M390.272 162.868 C 390.482 163.199,390.482 164.415,390.273 164.746 C 390.129 164.973,368.497 165.008,197.616 165.056 L 5.122 165.110 4.951 164.661 C 4.735 164.093,4.734 163.524,4.947 162.964 L 5.114 162.525 197.612 162.569 C 368.505 162.607,390.129 162.641,390.272 162.868 " stroke="none" fill="#ffffff" fill-rule="evenodd"></path></g></svg>